<?xml version="1.0" standalone="no"?>
<!DOCTYPE svg PUBLIC "-//W3C//DTD SVG 1.1//EN" "http://www.w3.org/Graphics/SVG/1.1/DTD/svg11.dtd" >
<svg xmlns="http://www.w3.org/2000/svg">
<metadata></metadata>
<defs>
<font id="misoregular" horiz-adv-x="851" >
<font-face units-per-em="2048" ascent="1638" descent="-410" />
<missing-glyph horiz-adv-x="393" />
<glyph horiz-adv-x="0" />
<glyph horiz-adv-x="682" />
<glyph unicode=" "  horiz-adv-x="393" />
<glyph unicode="&#x09;" horiz-adv-x="393" />
<glyph unicode="&#xa0;" horiz-adv-x="393" />
<glyph unicode="!" horiz-adv-x="409" d="M119 78q0 35 25.5 60.5t60.5 25.5t60.5 -25.5t25.5 -60.5t-25.5 -60.5t-60.5 -25.5t-60.5 25.5t-25.5 60.5zM139 385v819q0 27 19.5 46.5t46.5 19.5q28 0 46.5 -19t18.5 -47v-819q0 -28 -18.5 -47t-46.5 -19q-27 0 -46.5 19.5t-19.5 46.5z" />
<glyph unicode="&#x22;" horiz-adv-x="720" d="M131 1040v205q0 28 19 47t47 19t46.5 -19t18.5 -47v-205q0 -28 -18.5 -46.5t-46.5 -18.5t-47 18.5t-19 46.5zM459 1040v205q0 28 18.5 47t46.5 19t47 -19t19 -47v-205q0 -28 -19 -46.5t-47 -18.5t-46.5 18.5t-18.5 46.5z" />
<glyph unicode="#" horiz-adv-x="937" d="M39 508q0 26 17.5 43.5t43.5 17.5h144v203h-144q-26 0 -43.5 18.5t-17.5 45.5q0 26 17.5 43.5t43.5 17.5h144v348q0 26 17.5 44t43.5 18t45 -18t19 -44v-348h202v348q0 26 18 44t44 18t44.5 -18t18.5 -44v-348h142q26 0 44.5 -17.5t18.5 -43.5t-18.5 -45t-44.5 -19h-142 v-203h142q26 0 44.5 -17.5t18.5 -43.5t-18.5 -45t-44.5 -19h-142v-387q0 -26 -18.5 -44.5t-44.5 -18.5t-44 18.5t-18 44.5v387h-202v-387q0 -26 -19 -44.5t-45 -18.5t-43.5 18.5t-17.5 44.5v387h-144q-26 0 -43.5 18.5t-17.5 45.5zM369 569h202v203h-202v-203z" />
<glyph unicode="$" d="M146 272.5q7 26.5 30 40.5q23 12 50 5.5t40 -29.5q40 -69 117 -82q8 -2 27 -2h2q61 0 108 41q60 50 60 129q-3 79 -64 127l-256 211q-106 86 -106 221q-3 140 102 225q52 46 123 62v106q0 28 18.5 47t46.5 19q27 0 46.5 -19.5t19.5 -46.5v-106q122 -28 186 -138 q12 -23 5.5 -50t-29.5 -40t-49.5 -5.5t-40.5 30.5q-37 65 -111 78q-8 2 -27 2h-2q-57 0 -102 -39q-58 -49 -55 -123q0 -76 57 -121l258 -211q52 -41 80.5 -101t30.5 -128q0 -66 -28 -126.5t-79 -103.5q-50 -44 -127 -65v-105q0 -27 -19 -46t-46 -19q-28 0 -47 18.5t-19 46.5 v107q-126 25 -194 141q-13 23 -6 49.5z" />
<glyph unicode="%" horiz-adv-x="1214" d="M78 1061q0 100 71.5 172t172.5 72q100 0 171.5 -72t71.5 -172q0 -101 -71.5 -172.5t-171.5 -71.5q-101 0 -172.5 71.5t-71.5 172.5zM197 1061q0 -53 36.5 -89t88.5 -36t88 36t36 89t-36 89t-88 36t-88.5 -36t-36.5 -89zM259 35.5q-9 25.5 3 50.5l574 1188q12 24 37.5 33 t50.5 -2q24 -12 32.5 -37.5t-2.5 -50.5l-573 -1188q-12 -25 -37.5 -34t-50.5 3t-34 37.5zM651 242q0 100 71.5 171.5t172.5 71.5q100 0 172 -71.5t72 -171.5q0 -101 -72 -172.5t-172 -71.5q-101 0 -172.5 71.5t-71.5 172.5zM770 242q0 -52 36 -88.5t89 -36.5t89 36.5 t36 88.5t-36 88.5t-89 36.5t-89 -36.5t-36 -88.5z" />
<glyph unicode="&#x26;" horiz-adv-x="1009" d="M102 254q-19 134 62 240l164 213l-140 180l-2 2v2h-2v2q-41 63 -44 137.5t34 140.5q37 67 103 105t143 35q76 -3 139.5 -45t95.5 -111t24 -144t-54 -137l-131 -167l155 -203l51 -68l64 105q13 24 40 30t50 -8t29.5 -39.5t-6.5 -50.5l-91 -147l162 -207q15 -21 12 -49 t-24 -43q-22 -17 -48.5 -14.5t-43.5 24.5l-129 168l-37 -62q-67 -113 -201 -145q-127 -27 -241 47q-112 77 -134 209zM233 274q9 -73 76 -120q61 -43 140 -27q73 15 116 84l64 104l-84 109l-133 174l-144 -184q-48 -63 -35 -140zM289 1108q-40 -72 4 -143l119 -152l108 141 q25 32 29.5 71.5t-12.5 74.5t-50 56.5t-71 23.5q-39 1 -72.5 -18.5t-54.5 -53.5z" />
<glyph unicode="'" horiz-adv-x="393" d="M131 1040v205q0 28 19 47t47 19q27 0 46 -19.5t19 -46.5v-205q0 -27 -19 -46t-46 -19q-28 0 -47 18.5t-19 46.5z" />
<glyph unicode="(" horiz-adv-x="548" d="M115 651q0 220 69 418q66 200 205 381q17 22 43.5 24.5t48.5 -14.5t26 -43.5t-13 -48.5q-119 -148 -187 -342q-61 -180 -61 -375t61 -375q68 -194 187 -342q17 -22 13 -48.5t-26 -43.5t-48.5 -14t-43.5 25q-138 177 -205 380q-69 198 -69 418z" />
<glyph unicode=")" horiz-adv-x="550" d="M41.5 -93q-3.5 26 13.5 48q119 148 187 342q61 180 61 375t-61 375q-68 194 -187 342q-17 22 -13.5 48t24.5 44q22 17 49.5 14t42.5 -25q138 -180 207 -380q69 -198 69 -418t-69 -418q-71 -207 -207 -381q-15 -22 -42.5 -24.5t-49.5 14.5q-21 18 -24.5 44z" />
<glyph unicode="*" d="M99 801q7 25 30 37l172 100l-172 100q-23 12 -30 37t7 47q12 23 37 30t47 -7l175 -98v198q0 26 17.5 44t43.5 18t44.5 -18t18.5 -44v-198l173 98q22 14 46.5 7t36.5 -30q14 -22 7.5 -47t-29.5 -37l-172 -100l172 -100q23 -12 29.5 -37t-7.5 -47q-12 -23 -36.5 -30 t-46.5 7l-173 98v-198q0 -26 -18.5 -45t-44.5 -19t-43.5 18.5t-17.5 45.5v198l-175 -98q-22 -14 -47 -7t-37 30q-14 22 -7 47z" />
<glyph unicode="+" d="M115 590q0 28 18.5 46.5t46.5 18.5h180v181q0 28 19 46.5t47 18.5q27 0 46.5 -19t19.5 -46v-181h180q27 0 46 -19t19 -46q0 -28 -19.5 -47t-45.5 -19h-180v-180q0 -27 -19.5 -46t-46.5 -19q-28 0 -47 18.5t-19 46.5v180h-180q-28 0 -46.5 19t-18.5 47z" />
<glyph unicode="," horiz-adv-x="393" d="M102 98q0 26 18 44t44 18h65q26 0 45 -18t19 -44v-98q0 -51 -29 -93.5t-76 -62.5q-25 -10 -49 0t-33 33q-10 25 0 49t33 33q29 11 29 41v35h-4q-26 0 -44 18.5t-18 44.5z" />
<glyph unicode="-" d="M115 590q0 28 18.5 46.5t46.5 18.5h492q27 0 46 -19t19 -46q0 -28 -19.5 -47t-45.5 -19h-492q-28 0 -46.5 19t-18.5 47z" />
<glyph unicode="." horiz-adv-x="393" d="M111 78q0 35 25.5 60.5t60.5 25.5t60.5 -25.5t25.5 -60.5t-25.5 -60.5t-60.5 -25.5t-60.5 25.5t-25.5 60.5z" />
<glyph unicode="/" d="M119 -2l491 1352q9 25 34 36.5t50 2.5q26 -9 37 -33t2 -51l-491 -1352q-9 -26 -33 -37t-51 -2q-25 9 -36.5 33.5t-2.5 50.5z" />
<glyph unicode="0" d="M115 303v696q0 129 91 220.5t220 91.5q128 0 219.5 -91.5t91.5 -220.5v-696q0 -129 -91.5 -220t-219.5 -91q-129 0 -220 91t-91 220zM246 303q0 -75 52.5 -127.5t127.5 -52.5q74 0 127 52.5t53 127.5v696q0 74 -53.5 127.5t-126.5 53.5q-75 0 -127.5 -53.5t-52.5 -127.5 v-696z" />
<glyph unicode="1" d="M163 999.5q0 27.5 19 47.5l246 245q29 29 72 15q19 -7 30 -24.5t11 -37.5v-1188q0 -27 -19.5 -46t-46.5 -19q-28 0 -46.5 18.5t-18.5 46.5v1030l-136 -135q-19 -19 -45.5 -19t-46.5 19q-19 20 -19 47.5z" />
<glyph unicode="2" d="M125.5 1105.5q-7.5 26.5 5.5 49.5q64 113 186 143q122 35 234 -26q111 -60 147 -182q38 -122 -22 -236q-301 -573 -379 -723h350q27 0 46.5 -19t19.5 -46t-19.5 -46.5t-46.5 -19.5h-459q-38 0 -55 31q-21 34 -2 65l430 819q34 64 12 136t-86 106q-63 35 -135 17 q-71 -22 -106 -84q-14 -23 -40.5 -30.5t-49.5 5.5q-23 14 -30.5 40.5z" />
<glyph unicode="3" d="M96.5 197q7.5 27 30.5 41q23 12 50 5t40 -30q31 -53 87 -76t116 -8q58 15 95.5 63.5t37.5 110.5v123q0 74 -53.5 127t-126.5 53q-28 0 -47 19t-19 47t19 46.5t47 18.5q74 0 127 53t53 128v81q0 62 -37.5 111t-95.5 64q-60 15 -116 -8t-87 -76q-14 -23 -40.5 -30.5 t-49.5 5.5q-23 14 -30.5 40.5t5.5 49.5q54 91 152 132t199 13q103 -28 167 -111.5t64 -189.5v-81q0 -74 -32.5 -138.5t-88.5 -107.5q56 -43 88.5 -107.5t32.5 -138.5v-123q0 -106 -64 -189.5t-167 -111.5q-101 -28 -199 12.5t-152 132.5q-13 23 -5.5 50z" />
<glyph unicode="4" d="M88 365l287 901q9 25 33.5 37.5t50.5 3.5q20 -6 32.5 -23t12.5 -39q0 -14 -4 -20q-215 -676 -258 -815h254v221q0 28 18.5 46.5t46.5 18.5t47 -18.5t19 -46.5v-221h98q28 0 47 -19t19 -47t-19 -46.5t-47 -18.5h-98v-222q0 -28 -19 -46.5t-47 -18.5t-46.5 18.5t-18.5 46.5 v222h-344q-34 0 -54 26q-20 27 -10 60z" />
<glyph unicode="5" d="M145 651v586q0 28 19 47t47 19h426q28 0 46.5 -19t18.5 -47t-18.5 -47t-46.5 -19h-361v-368q106 57 228 26q103 -28 167 -111.5t64 -189.5v-225q0 -106 -64 -189.5t-167 -111.5q-101 -28 -198.5 12.5t-151.5 132.5q-12 23 -5.5 50.5t29.5 40.5q23 12 50 5t40 -30 q31 -53 87 -76t116 -8q58 15 95.5 63.5t37.5 110.5v225q0 62 -37.5 110.5t-95.5 63.5q-60 15 -116 -8t-87 -76q-10 -20 -30.5 -28t-42.5 -2t-36 23t-14 40z" />
<glyph unicode="6" d="M133 303v696q0 105 65 189t167 112q101 28 198.5 -13t151.5 -132q13 -23 5.5 -49.5t-30.5 -40.5q-23 -13 -49.5 -5.5t-40.5 30.5q-29 52 -86 75.5t-117 8.5q-58 -15 -95.5 -64t-37.5 -111v-237q79 57 180 57q129 0 220.5 -91t91.5 -220v-205q0 -129 -91.5 -220 t-220.5 -91t-220 91t-91 220zM264 303q0 -75 53 -127.5t127 -52.5q75 0 128 52.5t53 127.5v205q0 74 -53 127t-128 53q-74 0 -127 -53t-53 -127v-205z" />
<glyph unicode="7" d="M109 1073v164q0 27 19.5 46.5t45.5 19.5h492q30 0 51 -25q21 -28 12 -57l-287 -1180q-6 -26 -28.5 -39.5t-48.5 -7.5q-23 4 -37.5 22.5t-14.5 40.5q0 2 1 8t1 9q234 956 269 1097h-344v-98q0 -28 -19 -46.5t-47 -18.5q-27 0 -46 19t-19 46z" />
<glyph unicode="8" d="M115 303v123q0 74 32.5 138.5t88.5 107.5q-56 43 -88.5 107.5t-32.5 138.5v81q0 129 91.5 220.5t219.5 91.5q129 0 220 -91.5t91 -220.5v-81q0 -74 -32 -138t-87 -108q55 -44 87 -108t32 -138v-123q0 -129 -91 -220t-220 -91q-128 0 -219.5 91t-91.5 220zM246 303 q0 -75 53 -127.5t127 -52.5q75 0 127.5 52.5t52.5 127.5v123q0 74 -52.5 127t-127.5 53q-74 0 -127 -53t-53 -127v-123zM246 918q0 -75 53 -128t127 -53q75 0 127.5 53t52.5 128v81q0 74 -52.5 127.5t-127.5 53.5q-73 0 -126.5 -53.5t-53.5 -127.5v-81z" />
<glyph unicode="9" d="M96 795v204q0 129 92 220.5t220 91.5q129 0 220 -91.5t91 -220.5v-696q0 -106 -64.5 -189.5t-165.5 -111.5q-103 -28 -200.5 12.5t-149.5 132.5q-14 23 -7 50.5t30 40.5q25 12 51 5t39 -30q31 -52 87.5 -75.5t115.5 -8.5q60 15 96.5 63.5t36.5 110.5v238 q-77 -58 -180 -58q-128 0 -220 91.5t-92 220.5zM227 795q0 -75 53.5 -128t127.5 -53q75 0 127.5 53t52.5 128v204q0 74 -52.5 127.5t-127.5 53.5q-74 0 -127.5 -54t-53.5 -127v-204z" />
<glyph unicode=":" horiz-adv-x="393" d="M111 78q0 35 25.5 60.5t60.5 25.5q36 0 61 -25t25 -61t-25 -61t-61 -25q-35 0 -60.5 25.5t-25.5 60.5zM111 856q0 35 25.5 60.5t60.5 25.5q36 0 61 -25t25 -61t-25 -61t-61 -25q-35 0 -60.5 25.5t-25.5 60.5z" />
<glyph unicode=";" horiz-adv-x="393" d="M102 98q0 26 18 44t44 18h65q26 0 45 -18t19 -44v-98q0 -51 -29 -93.5t-76 -62.5q-25 -10 -49 0t-33 33q-10 25 0 49t33 33q29 11 29 41v35h-4q-26 0 -44 18.5t-18 44.5zM111 856q0 35 25.5 60.5t60.5 25.5t60.5 -25.5t25.5 -60.5t-25.5 -60.5t-60.5 -25.5t-60.5 25.5 t-25.5 60.5z" />
<glyph unicode="&#x3c;" d="M98 590q0 28 23 51l491 410q22 17 49 14t44 -25q16 -19 16 -41q0 -29 -25 -51q-338 -280 -430 -358l430 -359q25 -22 25 -51q0 -24 -16 -43q-17 -20 -44 -22.5t-49 14.5l-491 410q-23 20 -23 51z" />
<glyph unicode="=" d="M115 426q0 28 19.5 47t45.5 19h492q28 0 46.5 -19t18.5 -47t-18.5 -47t-46.5 -19h-492q-26 0 -45.5 19t-19.5 47zM115 754q0 27 19 46t46 19h492q28 0 46.5 -18.5t18.5 -46.5t-18.5 -47t-46.5 -19h-492q-26 0 -45.5 19t-19.5 47z" />
<glyph unicode="&#x3e;" d="M131 180q0 28 23 51q340 281 432 359l-432 358q-23 23 -23 51q0 24 14 41q19 22 46 25t47 -14l491 -410q25 -22 25 -51q0 -32 -25 -51l-491 -410q-20 -17 -47 -14.5t-46 22.5q-14 17 -14 43z" />
<glyph unicode="?" horiz-adv-x="731" d="M60.5 1105q-6.5 27 7.5 50q34 58 87.5 97t118.5 53q65 13 131 -2.5t119 -55.5q54 -41 86.5 -100t36.5 -125q9 -142 -90 -242l-102 -104q-54 -54 -54 -127v-164q0 -28 -18.5 -47t-46.5 -19q-27 0 -46.5 19.5t-19.5 46.5v164q0 126 90 219l105 104q57 57 51 140 q-7 83 -70 131q-65 49 -145 33q-79 -15 -121 -86q-14 -23 -39.5 -30.5t-50.5 5.5q-23 13 -29.5 40zM250 78q0 35 25.5 60.5t60.5 25.5t60.5 -25.5t25.5 -60.5t-25.5 -60.5t-60.5 -25.5t-60.5 25.5t-25.5 60.5z" />
<glyph unicode="@" horiz-adv-x="1564" d="M127 283v368q0 130 49.5 249.5t142.5 213.5q94 93 213.5 143t249.5 50q131 0 251 -50t214 -143q92 -94 141.5 -213.5t49.5 -249.5v-381q0 -110 -78.5 -188t-188.5 -78h-409q-109 0 -187.5 78t-78.5 188q0 109 78.5 188t187.5 79h143v139q0 42 -24 77t-64 50 q-40 17 -82 8.5t-73 -39.5q-19 -17 -44.5 -17t-44.5 19q-17 19 -17 44t19 42q57 57 135.5 72.5t151.5 -14.5q75 -29 120.5 -95.5t45.5 -146.5v-549h143q60 0 102 41.5t42 101.5v381q0 106 -40.5 203t-115.5 172q-75 76 -172.5 117t-204.5 41q-106 0 -202.5 -41t-171.5 -117 q-76 -75 -117 -172t-41 -203v-368q0 -107 41 -204.5t117 -172.5q75 -75 171.5 -115.5t202.5 -40.5h226q26 0 43.5 -18t17.5 -43q0 -26 -17.5 -44t-43.5 -18h-226q-130 0 -249.5 49.5t-213.5 141.5q-93 94 -142.5 214t-49.5 251zM618 270q0 -60 42.5 -101.5t101.5 -41.5h143 v287h-143q-58 0 -101 -43t-43 -101z" />
<glyph unicode="A" horiz-adv-x="884" d="M51 74l328 1188q6 22 23.5 35.5t39.5 13.5t40 -13.5t24 -35.5l328 -1188q3 -9 3 -19q0 -17 -9 -31q-14 -24 -42 -30q-9 -2 -18 -2q-16 0 -30 8q-22 13 -31 39q-27 101 -66 240h-397l-66 -240q-8 -26 -31 -39q-15 -8 -32 -8q-9 0 -19 2q-26 8 -39 31q-8 15 -8 31q0 9 2 18 zM281 410h323q-32 116 -90.5 328.5t-71.5 260.5q-12 -45 -44.5 -163.5t-62.5 -227t-54 -198.5z" />
<glyph unicode="B" horiz-adv-x="876" d="M139 66v1171q0 28 19 47t47 19h246q129 0 220 -91.5t91 -220.5v-73q0 -74 -32.5 -138.5t-88.5 -107.5q56 -43 88.5 -107.5t32.5 -138.5v-115q0 -129 -91 -220t-220 -91h-246q-28 0 -47 19t-19 47zM270 131h181q74 0 127 52.5t53 127.5v115q0 74 -53.5 127t-126.5 53h-181 v-475zM270 737h181q74 0 127 53t53 128v73q0 73 -53.5 126.5t-126.5 53.5h-181v-434z" />
<glyph unicode="C" horiz-adv-x="788" d="M115 303v696q0 106 64 189.5t167 111.5q41 11 81 11q59 0 117 -24q98 -41 152 -132q8 -15 8 -32q0 -9 -2 -18q-6 -27 -29.5 -40t-50 -5.5t-40.5 30.5q-31 53 -87 76q-34 14 -69 14q-23 0 -47 -6q-58 -15 -95.5 -64t-37.5 -111v-696q0 -62 37.5 -110.5t95.5 -63.5 q24 -6 47 -5q35 0 69 13q56 23 87 76q13 23 40 30t50 -5q24 -12 30 -40q2 -10 2 -19q0 -17 -8 -32q-54 -93 -152 -133q-58 -24 -116 -23q-41 0 -82 11q-103 28 -167 111.5t-64 189.5z" />
<glyph unicode="D" horiz-adv-x="876" d="M139 66v1171q0 28 19 47t47 19h246q129 0 220 -91.5t91 -220.5v-680q0 -129 -91 -220t-220 -91h-246q-28 0 -47 19t-19 47zM270 131h181q75 0 127.5 52.5t52.5 127.5v680q0 74 -52.5 127t-127.5 53h-181v-1040z" />
<glyph unicode="E" horiz-adv-x="753" d="M139 66v1171q0 28 19 47t47 19h409q28 0 47 -19t19 -47t-19 -47t-47 -19h-344v-434h303q28 0 47 -18.5t19 -46.5t-19 -47t-47 -19h-303v-475h344q28 0 47 -18.5t19 -46.5t-19 -47t-47 -19h-409q-28 0 -47 19t-19 47z" />
<glyph unicode="F" horiz-adv-x="737" d="M139 66v1171q0 27 19.5 46.5t46.5 19.5h409q28 0 47 -19t19 -47t-19 -47t-47 -19h-344v-434h303q28 0 47 -18.5t19 -46.5t-19 -47t-47 -19h-303v-540q0 -28 -18.5 -47t-46.5 -19q-27 0 -46.5 19.5t-19.5 46.5z" />
<glyph unicode="G" horiz-adv-x="843" d="M115 303v696q0 105 64.5 189t166.5 112q41 11 81 11q60 0 118 -24q98 -41 151 -132q14 -23 7 -50t-31 -40q-23 -13 -49.5 -5.5t-40.5 30.5q-29 52 -86 76q-34 14 -69 14q-23 0 -46 -6q-60 -15 -97.5 -64t-37.5 -111v-696q0 -75 53 -127.5t127 -52.5q75 0 127.5 52.5 t52.5 127.5v262h-139q-27 0 -46.5 19.5t-19.5 46.5t19.5 46t46.5 19h205q28 0 46.5 -18.5t18.5 -46.5v-328q0 -129 -91 -220t-220 -91t-220 91t-91 220z" />
<glyph unicode="H" horiz-adv-x="901" d="M139 57v1188q0 27 19.5 46.5t46.5 19.5q28 0 46.5 -19t18.5 -47v-508h361v508q0 27 19.5 46.5t45.5 19.5q28 0 47 -19t19 -47v-1188q0 -28 -19 -46.5t-47 -18.5q-27 0 -46 19t-19 46v549h-361v-549q0 -28 -18.5 -46.5t-46.5 -18.5q-27 0 -46.5 19t-19.5 46z" />
<glyph unicode="I" horiz-adv-x="409" d="M139 57v1188q0 27 19.5 46.5t46.5 19.5q28 0 46.5 -19t18.5 -47v-1188q0 -28 -18.5 -46.5t-46.5 -18.5q-27 0 -46.5 19t-19.5 46z" />
<glyph unicode="J" horiz-adv-x="681" d="M52 73q-2 9 -2 18q0 17 9 32q14 23 40 30t51 -6q41 -25 89 -25t91 25q41 23 65.5 66t24.5 90v942q0 28 18.5 47t46.5 19q27 0 46.5 -19.5t19.5 -46.5v-942q0 -83 -42.5 -155.5t-113.5 -114.5q-72 -41 -156.5 -41t-154.5 41q-24 13 -32 40z" />
<glyph unicode="K" horiz-adv-x="862" d="M139 57v1188q0 27 19.5 46.5t46.5 19.5q28 0 46.5 -19t18.5 -47v-543l414 582q17 22 43.5 25.5t48.5 -11.5q22 -16 27 -42q1 -6 1 -11q0 -20 -13 -39l-318 -446l324 -674q7 -14 7 -29q0 -11 -4 -21q-9 -26 -34 -38q-14 -7 -29 -7q-11 0 -21 4q-26 9 -36 34l-295 608 l-115 -160v-420q0 -28 -18.5 -46.5t-46.5 -18.5q-27 0 -46.5 19t-19.5 46z" />
<glyph unicode="L" horiz-adv-x="712" d="M139 66v1179q0 28 19 47t47 19q27 0 46 -19.5t19 -46.5v-1114h344q27 0 46.5 -19t19.5 -46t-19.5 -46.5t-46.5 -19.5h-409q-28 0 -47 19t-19 47z" />
<glyph unicode="M" horiz-adv-x="1064" d="M139 57v1188q0 24 14 42t37 22q7 2 15 2q14 0 28 -7q21 -10 31 -30q188 -402 268 -572l269 572q9 20 29 30q14 7 29 7q7 0 15 -2q22 -5 37 -23t15 -41v-1188q0 -27 -19.5 -46t-46.5 -19q-28 0 -46.5 18.5t-18.5 46.5v895l-203 -432q-19 -37 -60 -37q-43 0 -59 37 q-109 229 -203 432v-895q0 -27 -19 -46t-46 -19q-28 0 -47 18.5t-19 46.5z" />
<glyph unicode="N" horiz-adv-x="983" d="M139 57v1188q0 24 14 42t37 22q22 5 43 -5t31 -30q295 -616 449 -930v901q0 28 18.5 47t46.5 19t47 -19t19 -47v-1188q0 -23 -14 -41t-37 -22q-8 -2 -16 -2l-26 6q-21 10 -32 31q-297 615 -449 929v-901q0 -28 -18.5 -46.5t-46.5 -18.5t-47 18.5t-19 46.5z" />
<glyph unicode="O" d="M115 303v696q0 129 91 220.5t220 91.5t220 -91.5t91 -220.5v-696q0 -129 -91 -220t-220 -91t-220 91t-91 220zM246 303q0 -75 52.5 -127.5t127.5 -52.5q74 0 127 52.5t53 127.5v696q0 74 -53.5 127.5t-126.5 53.5q-75 0 -127.5 -53.5t-52.5 -127.5v-696z" />
<glyph unicode="P" horiz-adv-x="819" d="M139 57v1180q0 28 19 47t47 19h246q129 0 220 -91.5t91 -220.5v-114q0 -129 -91 -220.5t-220 -91.5h-181v-508q0 -28 -18.5 -46.5t-46.5 -18.5t-47 18.5t-19 46.5zM270 696h181q74 0 127 53t53 128v114q0 73 -53.5 126.5t-126.5 53.5h-181v-475z" />
<glyph unicode="Q" d="M115 303v696q0 129 91 220.5t220 91.5t220 -91.5t91 -220.5v-696q0 -139 -102 -231l94 -162q8 -15 8 -31q0 -9 -2 -19q-7 -26 -30 -40q-15 -8 -32 -8q-9 0 -19 2q-27 7 -40 30l-92 162q-54 -14 -96 -14q-129 0 -220 91t-91 220zM246 303q0 -75 53 -127.5t127 -52.5 q75 0 127.5 52.5t52.5 127.5v696q0 74 -52.5 127.5t-127.5 53.5q-73 0 -126.5 -53.5t-53.5 -127.5v-696z" />
<glyph unicode="R" d="M139 57v1180q0 27 19.5 46.5t46.5 19.5h246q129 0 220 -91.5t91 -220.5v-114q0 -97 -53.5 -175t-139.5 -114l189 -508q4 -10 4 -22q0 -14 -6 -28q-11 -25 -37 -34q-11 -4 -23 -4l-27 6q-25 11 -34 37l-197 530h-168v-508q0 -28 -18.5 -46.5t-46.5 -18.5q-27 0 -46.5 19 t-19.5 46zM270 696h181q75 0 127.5 53t52.5 128v114q0 74 -52.5 127t-127.5 53h-181v-475z" />
<glyph unicode="S" horiz-adv-x="782" d="M93 203q7 26 30 39q23 14 50 6.5t40 -31.5q43 -74 127 -90q20 -4 40 -4q61 0 112 39q69 50 75 137q1 9 1 18q0 75 -54 129l-328 336q-46 48 -69 111q-18 50 -18 102q0 14 1 27q4 67 36.5 126t86.5 99q53 39 119 55q36 8 71 9q30 0 60 -6q65 -14 119 -53t88 -97 q14 -23 6.5 -50t-31.5 -40q-23 -13 -49.5 -5.5t-38.5 30.5q-42 71 -121 86q-20 4 -38 4q-58 0 -107 -37q-64 -48 -70 -129q-1 -8 0 -15q0 -71 50 -125l327 -337q91 -95 91 -224q0 -12 -1 -24q-13 -147 -127 -232q-89 -66 -191 -66q-33 0 -67 7q-67 13 -123.5 53.5 t-91.5 100.5q-8 16 -8 32q0 9 3 19z" />
<glyph unicode="T" horiz-adv-x="778" d="M57 1237q0 27 19.5 46.5t46.5 19.5h532q28 0 47 -19t19 -47t-19 -47t-47 -19h-200v-1114q0 -28 -19 -46.5t-47 -18.5q-27 0 -46 19t-19 46v1114h-201q-27 0 -46.5 19.5t-19.5 46.5z" />
<glyph unicode="U" horiz-adv-x="868" d="M123 303v942q0 28 18.5 47t46.5 19q27 0 46.5 -19.5t19.5 -46.5v-942q0 -75 52.5 -127.5t127.5 -52.5q74 0 127 52.5t53 127.5v942q0 28 19 47t47 19q26 0 45.5 -19.5t19.5 -46.5v-942q0 -129 -91.5 -220t-219.5 -91q-129 0 -220 91t-91 220z" />
<glyph unicode="V" horiz-adv-x="917" d="M70 1227q-3 10 -3 19q1 16 9 32q14 24 39 31q8 2 16 2q19 1 35 -9q24 -14 29 -40q182 -661 266 -959l264 959q5 26 29 40q16 9 35 9q8 0 16 -2q25 -7 39 -31q8 -15 9 -32q0 -9 -3 -19l-328 -1188q-4 -20 -21.5 -33.5t-39.5 -13.5q-23 0 -40.5 13t-23.5 34z" />
<glyph unicode="W" horiz-adv-x="1429" d="M78 1229q-2 9 -2 17q0 18 10 34q14 23 39 29q27 6 50.5 -8t29.5 -41q145 -606 223 -924l223 924q4 23 22 37t42 14q23 0 40 -14t23 -37q145 -606 223 -924l224 924q6 27 28.5 41t49.5 8t41 -29q10 -16 10 -35q0 -8 -2 -16l-287 -1188q-6 -22 -23.5 -35.5t-40.5 -13.5 t-41 13.5t-22 35.5q-147 608 -223 926l-223 -926q-6 -22 -23.5 -35.5t-40.5 -13.5t-41 13.5t-22 35.5z" />
<glyph unicode="X" horiz-adv-x="864" d="M62 36q-4 11 -3 21q0 15 7 29l292 586l-272 545q-12 23 -3 49.5t34 38.5q13 6 26 6q11 0 23 -4q26 -9 39 -33l227 -455l227 455q12 24 38 33q12 4 23 4q14 0 28 -6q24 -12 32.5 -38.5t-2.5 -49.5l-272 -545l293 -586q6 -14 6 -28q0 -10 -4 -22q-9 -26 -33 -38 q-14 -7 -29 -7q-11 0 -21 4q-26 9 -38 34l-248 495l-248 -495q-12 -25 -38 -34q-11 -4 -23 -4q-14 0 -27 7q-26 12 -34 38z" />
<glyph unicode="Y" horiz-adv-x="823" d="M62 1266q9 27 34 39q13 6 26 6q12 0 24 -4q26 -9 38 -33q154 -308 228 -455l227 455q12 24 37 33q12 4 23 4q14 0 28 -6q25 -12 34 -39q4 -11 4 -22q0 -14 -7 -27l-281 -562v-598q0 -28 -18.5 -46.5t-46.5 -18.5t-47 18.5t-19 46.5v598l-280 562q-7 13 -7 28q0 11 3 21z " />
<glyph unicode="Z" horiz-adv-x="786" d="M82 66q0 12 6 24q387 925 453 1081h-394q-28 0 -46.5 19t-18.5 47t18.5 47t46.5 19h492q36 0 55 -29q11 -22 11 -37q0 -5 -5 -25q-388 -927 -454 -1081h393q28 0 47 -18.5t19 -46.5t-19 -47t-47 -19h-492q-36 0 -55 29q-10 20 -10 37z" />
<glyph unicode="[" horiz-adv-x="524" d="M139 -98v1499q0 28 19 46.5t47 18.5h205q28 0 46.5 -18.5t18.5 -46.5t-18.5 -47t-46.5 -19h-140v-1368h140q28 0 46.5 -18.5t18.5 -46.5t-18.5 -47t-46.5 -19h-205q-28 0 -47 19t-19 47z" />
<glyph unicode="\" d="M119 1305q-9 26 2.5 50.5t36.5 33.5q26 9 50.5 -2.5t33.5 -36.5l491 -1352q9 -27 -2 -51t-37 -33q-25 -9 -50 2t-34 37z" />
<glyph unicode="]" horiz-adv-x="524" d="M49 -98q0 28 19 46.5t47 18.5h139v1368h-139q-28 0 -47 19t-19 47t19 46.5t47 18.5h204q27 0 46.5 -19t19.5 -46v-1499q0 -27 -19.5 -46.5t-46.5 -19.5h-204q-28 0 -47 19t-19 47z" />
<glyph unicode="^" horiz-adv-x="1024" d="M123.5 873q-1.5 27 15.5 47l324 368q20 23 49 23t49 -23l324 -368q17 -20 15.5 -47t-21.5 -46q-22 -18 -49 -16t-46 23q-200 231 -272 311l-272 -311q-19 -21 -46 -23t-49 16q-20 19 -21.5 46z" />
<glyph unicode="_" horiz-adv-x="1024" d="M-66 -229q0 28 19 46.5t47 18.5h1024q27 0 46.5 -19t19.5 -46t-19.5 -46.5t-46.5 -19.5h-1024q-28 0 -47 19t-19 47z" />
<glyph unicode="`" horiz-adv-x="1024" d="M345 1282.5q-2 26.5 15 46.5q19 20 47 22.5t48 -16.5l204 -184q20 -19 22 -45.5t-17 -46.5q-19 -22 -46 -23.5t-47 17.5l-204 184q-20 19 -22 45.5z" />
<glyph unicode="a" horiz-adv-x="720" d="M61 270q0 110 78.5 188.5t188.5 78.5h143v139q0 42 -23.5 76.5t-62.5 52.5q-25 10 -52 10q-14 0 -29 -3q-42 -8 -71 -38q-19 -19 -44 -19t-44 19t-19 44t19 42q57 57 135 73q27 5 53 6q51 0 99 -21q74 -31 118 -97t44 -145v-610q0 -26 -18.5 -44t-43.5 -18h-204 q-110 0 -188.5 78t-78.5 188zM184 270q0 -60 42 -101.5t102 -41.5h143v287h-143q-60 0 -102 -42t-42 -102z" />
<glyph unicode="b" horiz-adv-x="794" d="M143 66v1220q0 26 18 44t44 18q25 0 43 -18t18 -44v-356h144q109 0 187.5 -78t78.5 -188v-394q0 -110 -78.5 -188t-187.5 -78h-205q-26 0 -44 18t-18 44zM266 127h144q59 0 101 41.5t42 101.5v394q0 60 -42 101.5t-101 41.5h-144v-680z" />
<glyph unicode="c" horiz-adv-x="671" d="M119 262v410q0 82 44.5 148.5t119.5 97.5q49 20 100 20q26 0 53 -5q78 -16 137 -73q17 -19 17 -44t-17 -44q-19 -17 -44 -17t-44 17q-30 32 -73 40q-15 3 -29 3q-27 0 -53 -10q-40 -17 -64 -53.5t-24 -79.5v-410q0 -43 24 -79.5t64 -53.5q27 -11 54 -11q14 0 28 2 q42 8 73 40q19 19 44 19t44 -19q17 -17 17 -42t-17 -44q-59 -57 -137 -73q-27 -5 -53 -5q-51 0 -100 20q-75 31 -119.5 97.5t-44.5 148.5z" />
<glyph unicode="d" horiz-adv-x="794" d="M119 270v394q0 110 78 188t188 78h143v356q0 26 18 44t44 18q25 0 43 -18t18 -44v-1220q0 -26 -18 -44t-43 -18h-205q-110 0 -188 78t-78 188zM242 270q0 -60 41.5 -101.5t101.5 -41.5h143v680h-143q-60 0 -101.5 -41.5t-41.5 -101.5v-394z" />
<glyph unicode="e" horiz-adv-x="753" d="M119 262v410q0 110 78 188t188 78t188 -78t78 -188v-205q0 -26 -17.5 -43.5t-43.5 -17.5h-348v-144q0 -43 24 -79.5t64 -53.5q27 -11 54 -11q14 0 28 2q42 8 73 40q19 19 44 19t44 -19q19 -17 19 -42t-19 -44q-57 -57 -136 -73q-27 -5 -53 -5q-51 0 -101 20 q-75 31 -119.5 97.5t-44.5 148.5zM242 528h286v144q0 60 -41.5 101.5t-101.5 41.5t-101.5 -41.5t-41.5 -101.5v-144z" />
<glyph unicode="f" horiz-adv-x="606" d="M53 868q0 26 18 44t44 18h102v151q0 110 78 188.5t188 78.5q26 0 44 -18t18 -44t-18 -43.5t-44 -17.5q-60 0 -101.5 -42t-41.5 -102v-151h143q26 0 44 -18t18 -44t-18 -43.5t-44 -17.5h-143v-750q0 -26 -17.5 -43.5t-43.5 -17.5t-44 17.5t-18 43.5v750h-102 q-26 0 -44 17.5t-18 43.5z" />
<glyph unicode="g" horiz-adv-x="786" d="M119 270v394q0 110 78 188t188 78h205q26 0 43.5 -18t17.5 -44v-1015q0 -82 -44.5 -148.5t-119.5 -97.5q-50 -21 -102 -21q-25 0 -51 6q-79 15 -137 72q-19 19 -19 44t19 42q19 19 44 19t44 -19q31 -31 73 -40q14 -2 28 -2q27 0 54 11q40 17 64 54t24 80v151h-143 q-110 0 -188 78t-78 188zM242 270q0 -60 42 -101.5t101 -41.5h143v680h-143q-59 0 -101 -41.5t-42 -101.5v-394z" />
<glyph unicode="h" horiz-adv-x="802" d="M143 57v1229q0 26 18.5 44t43.5 18q26 0 43.5 -18t17.5 -44v-356h144q110 0 188 -78t78 -188v-607q0 -26 -18 -43.5t-44 -17.5q-25 0 -43 17.5t-18 43.5v607q0 60 -41.5 101.5t-101.5 41.5h-144v-750q0 -26 -17.5 -43.5t-43.5 -17.5q-25 0 -43.5 17.5t-18.5 43.5z" />
<glyph unicode="i" horiz-adv-x="409" d="M123 1184q0 34 24 58t58 24t58 -24t24 -58t-24 -58t-58 -24t-58 24t-24 58zM143 57v820q0 26 18.5 43.5t43.5 17.5q26 0 43.5 -17.5t17.5 -43.5v-820q0 -26 -17.5 -43.5t-43.5 -17.5q-25 0 -43.5 17.5t-18.5 43.5z" />
<glyph unicode="j" horiz-adv-x="425" d="M-45 -352q0 26 18 43.5t43 17.5q60 0 102 42t42 102v1024q0 26 18 43.5t43 17.5q26 0 44 -17.5t18 -43.5v-1024q0 -110 -78.5 -188.5t-188.5 -78.5q-25 0 -43 18t-18 44zM139 1184q0 34 24 58t58 24t58 -24t24 -58t-24 -58t-58 -24t-58 24t-24 58z" />
<glyph unicode="k" horiz-adv-x="778" d="M143 57v1229q0 26 18 44t44 18q25 0 43 -18t18 -44v-751l342 383q17 19 42.5 20t45.5 -16q20 -18 20 -45q0 -23 -16 -41l-249 -279l258 -471q8 -14 8 -29q0 -9 -3 -17q-7 -24 -30 -36q-22 -12 -47 -5.5t-37 28.5l-235 432l-99 -109v-293q0 -26 -18 -43.5t-43 -17.5 q-26 0 -44 17.5t-18 43.5z" />
<glyph unicode="l" horiz-adv-x="409" d="M137 199v1087q0 26 18.5 44t43.5 18q26 0 43.5 -18t17.5 -44v-1087q0 -58 51 -88q23 -12 30 -37q2 -8 2 -16q0 -16 -9 -31q-12 -23 -36 -29q-9 -2 -18 -2q-16 0 -30 8q-52 31 -82.5 83.5t-30.5 111.5z" />
<glyph unicode="m" horiz-adv-x="1212" d="M143 57v811q0 26 18 44t44 18h614q109 0 187.5 -78t78.5 -188v-607q0 -26 -18 -43.5t-43 -17.5q-26 0 -43.5 17.5t-17.5 43.5v607q0 60 -42.5 101.5t-101.5 41.5h-143v-750q0 -26 -18.5 -43.5t-43.5 -17.5q-26 0 -43.5 17.5t-17.5 43.5v750h-287v-750q0 -26 -18 -43.5 t-43 -17.5q-26 0 -44 17.5t-18 43.5z" />
<glyph unicode="n" horiz-adv-x="802" d="M143 57v811q0 26 18 44t44 18h205q109 0 187.5 -78t78.5 -188v-607q0 -26 -18.5 -43.5t-43.5 -17.5q-26 0 -43.5 17.5t-17.5 43.5v607q0 60 -42 101.5t-101 41.5h-144v-750q0 -26 -18 -43.5t-43 -17.5q-26 0 -44 17.5t-18 43.5z" />
<glyph unicode="o" horiz-adv-x="770" d="M119 262v410q0 110 78 188t188 78q109 0 187.5 -78t78.5 -188v-410q0 -110 -78.5 -188t-187.5 -78q-110 0 -188 78t-78 188zM242 262q0 -60 41.5 -101.5t101.5 -41.5q59 0 101 41.5t42 101.5v410q0 60 -42 101.5t-101 41.5q-60 0 -101.5 -41.5t-41.5 -101.5v-410z" />
<glyph unicode="p" horiz-adv-x="794" d="M143 -352v1220q0 26 18 44t44 18h205q109 0 187.5 -78t78.5 -188v-394q0 -110 -78.5 -188t-187.5 -78h-144v-356q0 -26 -18 -44t-43 -18q-26 0 -44 18t-18 44zM266 127h144q59 0 101 41.5t42 101.5v394q0 60 -42 101.5t-101 41.5h-144v-680z" />
<glyph unicode="q" horiz-adv-x="794" d="M119 270v394q0 110 78 188t188 78h205q25 0 43 -18t18 -44v-1220q0 -26 -18 -44t-43 -18q-26 0 -44 18t-18 44v356h-143q-110 0 -188 78t-78 188zM242 270q0 -60 41.5 -101.5t101.5 -41.5h143v680h-143q-60 0 -101.5 -41.5t-41.5 -101.5v-394z" />
<glyph unicode="r" horiz-adv-x="612" d="M143 57v811q0 26 18 44t44 18h205q71 0 133 -35q22 -13 28 -37q2 -8 2 -17q0 -16 -8 -30q-12 -23 -37 -30t-47 7q-36 19 -71 19h-144v-750q0 -26 -17.5 -43.5t-43.5 -17.5t-44 17.5t-18 43.5z" />
<glyph unicode="s" horiz-adv-x="673" d="M98 170q6 25 28.5 37t47.5 5.5t37 -28.5q31 -54 94 -63q11 -2 21 -2q48 0 88 35q42 39 42 91q0 7 -1 13q-3 61 -56 98l-190 136q-46 32 -73 80t-32 104v15q0 109 80 181q72 67 165 67q19 0 38 -3q56 -9 102.5 -40.5t73.5 -80.5q12 -22 6 -47t-28 -37t-47 -5.5t-37 28.5 q-27 49 -88 59q-12 2 -23 2q-45 0 -80 -33q-39 -36 -39 -90v-8q3 -59 54 -92l190 -133q48 -34 76 -84.5t31 -108.5q1 -11 1 -21q0 -107 -83 -182q-73 -68 -170 -68q-19 0 -39 3q-122 19 -183 125q-8 14 -8 30q0 8 2 17z" />
<glyph unicode="t" horiz-adv-x="606" d="M53 868q0 26 18 44t44 18h102v356q0 26 18 44t44 18t43.5 -18t17.5 -44v-356h143q26 0 44 -18t18 -44t-18 -43.5t-44 -17.5h-143v-545q0 -60 41.5 -101.5t101.5 -41.5q26 0 44 -18t18 -44t-18 -43.5t-44 -17.5q-110 0 -188 78t-78 188v545h-102q-26 0 -44 17.5t-18 43.5z " />
<glyph unicode="u" horiz-adv-x="802" d="M127 270v607q0 26 17.5 43.5t43.5 17.5t44 -17.5t18 -43.5v-607q0 -60 41.5 -101.5t101.5 -41.5h144v750q0 26 17.5 43.5t43.5 17.5t43.5 -17.5t17.5 -43.5v-811q0 -26 -17.5 -44t-43.5 -18h-205q-110 0 -188 78t-78 188z" />
<glyph unicode="v" horiz-adv-x="757" d="M74 858q-2 8 -2 16q0 16 8 32q12 23 37 30q8 2 15 2l31 -8q23 -12 30 -35q118 -398 186 -625l186 625q7 23 30 35q15 8 32 8q8 0 16 -2q25 -7 37 -30q7 -14 7 -28q0 -10 -3 -20l-246 -819q-6 -19 -22.5 -31t-36.5 -12t-37 12t-23 31z" />
<glyph unicode="w" horiz-adv-x="1101" d="M80 862q-2 8 -2 15q0 15 9 31q13 22 38 28t46.5 -7t27.5 -38q86 -340 145 -580l145 580q6 21 22.5 34t37.5 13q22 0 38.5 -12.5t20.5 -34.5q87 -340 146 -580l145 580q6 25 28 38t48 7q25 -6 37 -28q8 -14 8 -30q0 -8 -2 -16l-205 -819q-4 -22 -20.5 -34.5t-38.5 -12.5 q-21 0 -37.5 13t-22.5 34q-84 340 -145 580l-146 -580q-4 -22 -20.5 -34.5t-38.5 -12.5q-21 0 -37 13t-22 34z" />
<glyph unicode="x" horiz-adv-x="737" d="M81 40q-3 9 -3 17q0 15 8 29l213 389l-205 371q-12 23 -5 47.5t30 36.5q14 8 29 8q9 0 18 -3q25 -7 37 -30l166 -303l168 303q13 23 37 30q9 3 17 3q15 0 30 -8q22 -12 29 -36.5t-5 -47.5l-205 -371l213 -389q8 -14 7 -29q0 -9 -2 -17q-7 -24 -29 -36q-15 -8 -30 -8 q-7 0 -17 2q-24 6 -37 29l-176 319l-174 -319q-12 -23 -37 -29q-9 -2 -17 -2q-16 0 -30 8q-23 12 -30 36z" />
<glyph unicode="y" horiz-adv-x="755" d="M41 -352q0 26 17.5 43.5t43.5 17.5q47 0 86 28.5t52 74.5l73 245l-239 801q-8 25 4 48t37 30q8 2 16 2q16 0 30 -8q21 -12 29 -35l187 -625l188 625q6 23 29 35q14 8 31 8q8 0 16 -2q25 -7 37 -30q7 -14 7 -28q0 -10 -3 -20l-246 -819l-78 -262q-29 -88 -96 -137 q-73 -54 -160 -54q-26 0 -43.5 18t-17.5 44z" />
<glyph unicode="z" horiz-adv-x="704" d="M86 66q0 13 6 28q291 572 365 713h-310q-26 0 -43.5 17.5t-17.5 43.5t17.5 44t43.5 18h410q35 0 51 -29q10 -17 10 -33q0 -8 -8 -28q-290 -572 -362 -713h309q25 0 43 -17.5t18 -43.5t-18 -44t-43 -18h-410q-37 0 -53 29q-8 13 -8 33z" />
<glyph unicode="{" horiz-adv-x="524" d="M33 672q0 28 18.5 46.5t46.5 18.5q40 0 69.5 29t29.5 70v409q0 95 67 162.5t162 67.5q28 0 47 -19t19 -47t-19 -47t-47 -19q-41 0 -69.5 -29t-28.5 -69v-409q0 -97 -70 -164q70 -67 70 -164v-451q0 -41 28.5 -69.5t69.5 -28.5q28 0 47 -18.5t19 -46.5t-19 -47t-47 -19 q-95 0 -162 67t-67 162v451q0 40 -29.5 69t-69.5 29q-28 0 -46.5 19t-18.5 47z" />
<glyph unicode="|" horiz-adv-x="425" d="M158 -352v2048q0 28 18.5 46.5t46.5 18.5t47 -18.5t19 -46.5v-2048q0 -28 -19 -47t-47 -19t-46.5 19t-18.5 47z" />
<glyph unicode="}" horiz-adv-x="524" d="M33 -106q0 28 18.5 46.5t46.5 18.5q40 0 69.5 28.5t29.5 69.5v451q0 100 67 164q-67 64 -67 164v409q0 40 -29.5 69t-69.5 29q-28 0 -46.5 19t-18.5 47t18.5 47t46.5 19q94 0 162 -67.5t68 -162.5v-409q0 -41 28.5 -70t69.5 -29q27 0 46.5 -19t19.5 -46t-19.5 -46.5 t-46.5 -19.5q-41 0 -69.5 -29t-28.5 -69v-451q0 -95 -68 -162t-162 -67q-28 0 -46.5 19t-18.5 47z" />
<glyph unicode="~" d="M89.5 482.5q-5.5 25.5 8.5 47.5q28 43 71 71.5t93 35.5q105 19 191 -45l24 -19q42 -31 94 -22q53 10 80 53q13 21 38.5 26t47.5 -9q22 -13 27.5 -38.5t-8.5 -47.5q-28 -43 -71.5 -71.5t-92.5 -35.5q-106 -19 -191 45l-24 19q-42 31 -94 22q-53 -10 -80 -53 q-14 -22 -39 -27t-47 10q-22 13 -27.5 38.5z" />
<glyph unicode="&#xa1;" horiz-adv-x="409" d="M119 856q0 35 25.5 60.5t60.5 25.5t60.5 -25.5t25.5 -60.5t-25.5 -60.5t-60.5 -25.5t-60.5 25.5t-25.5 60.5zM139 -270v819q0 27 19.5 46t46.5 19q28 0 46.5 -18.5t18.5 -46.5v-819q0 -28 -18.5 -47t-46.5 -19q-27 0 -46.5 19.5t-19.5 46.5z" />
<glyph unicode="&#xa2;" d="M184 262v410q0 83 45 150.5t121 99.5q18 6 39 12v106q0 28 19 47t47 19q27 0 46 -19t19 -47v-106q76 -20 125 -72q19 -19 19 -45.5t-19 -46.5q-20 -19 -46.5 -19t-45.5 19q-41 41 -96 41h-2h-2q-25 0 -52 -10q-40 -17 -63 -51.5t-23 -77.5v-410q0 -43 23 -77.5t63 -51.5 q27 -10 52 -10h2h2q55 0 96 41q19 19 45.5 19t46.5 -19q19 -20 19 -46.5t-19 -45.5q-49 -52 -125 -72v-106q0 -28 -19 -47t-46 -19q-28 0 -47 19t-19 47v106q-21 3 -39 12q-76 32 -121 99.5t-45 150.5z" />
<glyph unicode="&#xa3;" d="M74 672q0 27 19 46t46 19h99v303q0 92 56 164.5t144 95.5q89 25 174 -9.5t131 -114.5q12 -23 5.5 -50.5t-29.5 -40.5t-49.5 -5.5t-40.5 30.5q-23 41 -67.5 59.5t-88.5 6.5q-46 -12 -75 -50.5t-29 -85.5v-303h180q28 0 46.5 -18.5t18.5 -46.5t-18.5 -47t-46.5 -19h-180 v-309q0 -92 -47 -166h391q28 0 46.5 -18.5t18.5 -46.5t-18.5 -47t-46.5 -19h-574q-24 0 -42 15.5t-21 39.5q-5 23 7.5 44t35.5 28q54 20 86.5 66.5t32.5 103.5v309h-99q-27 0 -46 19t-19 47z" />
<glyph unicode="&#xa4;" horiz-adv-x="1433" d="M80 322v608q0 2 2 4v2q0 2 2 4v2l248 426q11 21 33 10l743 -370l2 -2h2l248 -181q10 -7 10 -20v-606q0 -16 -14 -23l-123 -61l-248 -125l-125 -62l-2 -2h-2q-2 -2 -6 -2q-6 0 -6 2h-2q-2 0 -4 2l-744 371q-14 7 -14 23zM131 336l694 -346v553l-694 346v-553zM139 940 l701 -350l223 385l-701 348zM295 453v252q0 13 12 22q11 7 25 0l299 -149q14 -7 14 -23v-252q0 -16 -12 -22q-10 -5 -12 -5q-3 0 -13 5l-299 149q-14 7 -14 23zM346 467l250 -125v199l-250 125v-199zM874 -10l74 37v591q0 16 15 23l247 125q9 6 25 -2q10 -7 10 -21l2 -567 l74 37v580l-217 155l-230 -397v-561zM997 51l201 101l-2 550l-199 -98v-553z" />
<glyph unicode="&#xa5;" d="M77 1266.5q9 26.5 34 38.5q23 11 49.5 2t38.5 -33q153 -308 227 -455l227 455q12 24 37.5 33t50.5 -2q24 -12 33 -38.5t-2 -49.5l-240 -480h148q28 0 46.5 -18.5t18.5 -46.5t-18.5 -47t-46.5 -19h-188v-196h188q28 0 46.5 -19t18.5 -47t-18.5 -46.5t-46.5 -18.5h-188 v-222q0 -28 -19 -46.5t-47 -18.5t-47 18.5t-19 46.5v222h-172q-28 0 -46.5 18.5t-18.5 46.5t18.5 47t46.5 19h172v196h-172q-28 0 -46.5 19t-18.5 47t18.5 46.5t46.5 18.5h131l-239 480q-12 23 -3 49.5z" />
<glyph unicode="&#xa6;" horiz-adv-x="425" d="M147 -352v819q0 28 19 46.5t47 18.5t47 -18.5t19 -46.5v-819q0 -28 -19 -47t-47 -19t-47 19t-19 47zM147 877v819q0 28 19 46.5t47 18.5t47 -18.5t19 -46.5v-819q0 -28 -19 -47t-47 -19t-47 19t-19 47z" />
<glyph unicode="&#xa7;" d="M170 758q15 84 78 141q-57 66 -60 158q0 119 88 192q87 77 205 58q117 -19 174 -121q14 -23 7 -50t-31 -40q-23 -13 -48.5 -6t-39.5 30q-28 48 -84 58q-54 9 -97 -27q-43 -34 -43 -92q3 -58 46 -90l229 -185q55 -43 79.5 -107t10.5 -132q-15 -82 -78 -142q58 -67 58 -157 q3 -119 -86 -193q-88 -76 -205 -57t-174 121q-14 23 -7 50t31 40q23 12 49 5t39 -30q27 -47 84 -57q54 -9 97 27q43 37 40 92q0 58 -43 90l-229 182h-2q-54 44 -77.5 109.5t-10.5 132.5zM297 735q-13 -71 43 -114l164 -132q45 30 51 78q6 32 -5 63.5t-36 51.5l-164 131 q-44 -29 -53 -78z" />
<glyph unicode="&#xa8;" horiz-adv-x="1024" d="M262 1184q0 35 25.5 60.5t60.5 25.5t60.5 -25.5t25.5 -60.5t-25.5 -60.5t-60.5 -25.5t-60.5 25.5t-25.5 60.5zM590 1184q0 35 25.5 60.5t60.5 25.5t60.5 -25.5t25.5 -60.5t-25.5 -60.5t-60.5 -25.5t-60.5 25.5t-25.5 60.5z" />
<glyph unicode="&#xa9;" horiz-adv-x="1470" d="M80 651q0 132 49 251.5t143 213.5q92 92 212 141.5t251 49.5q132 0 252.5 -49.5t212.5 -141.5q94 -94 143.5 -213.5t49.5 -251.5t-49.5 -251.5t-143.5 -213.5q-92 -92 -212.5 -142t-252.5 -50q-130 0 -250.5 50t-212.5 142q-94 94 -143 213.5t-49 251.5zM205 651 q0 -106 40 -204t115 -173t172 -115t203 -40q107 0 204.5 40t172.5 115t115.5 173t40.5 204t-40.5 203t-115.5 172t-172.5 115.5t-204.5 40.5q-106 0 -203 -40.5t-172 -115.5t-115 -172t-40 -203zM510 508v287q0 76 47 137.5t121 81.5q73 20 144.5 -10.5t109.5 -96.5 q14 -22 7 -47t-30 -37q-23 -13 -47.5 -6.5t-38.5 29.5q-17 29 -48.5 42.5t-63.5 4.5q-34 -9 -55 -36.5t-21 -61.5v-287q0 -34 21 -61.5t55 -36.5q32 -9 63.5 4.5t48.5 42.5q13 23 38 29.5t48 -7.5q23 -12 30 -37t-7 -47q-38 -67 -109 -96.5t-145 -9.5t-121 81.5t-47 137.5z " />
<glyph unicode="&#xaa;" horiz-adv-x="624" d="M111 815q0 84 59 143.5t143 59.5h84v84q0 29 -16.5 52t-44.5 30t-54.5 -3.5t-41.5 -35.5q-12 -22 -35 -28.5t-45 5.5t-28.5 36t5.5 44q35 60 99 86.5t131 7.5q66 -17 107.5 -71t41.5 -123v-430q0 -25 -17 -42.5t-42 -17.5h-144q-85 0 -143.5 59t-58.5 144zM229 815 q0 -35 24.5 -59.5t59.5 -24.5h84v168h-84q-35 0 -59.5 -24.5t-24.5 -59.5z" />
<glyph unicode="&#xab;" horiz-adv-x="858" d="M106 565q-16 32 0 64l132 237q14 25 39.5 32.5t50.5 -5.5q32 -19 32 -57q0 -20 -8 -31q-85 -160 -112 -207l120 -223q9 -15 9 -31q0 -37 -33 -57q-25 -14 -51 -6.5t-39 32.5zM475 565q-16 32 0 64l131 237q14 25 39.5 32.5t50.5 -5.5q33 -20 33 -57q0 -20 -8 -31 q-86 -160 -113 -207l121 -223q8 -13 8 -31q0 -38 -32 -57q-25 -14 -51.5 -6.5t-39.5 32.5z" />
<glyph unicode="&#xac;" d="M115 590q0 27 19 46t46 19h492q28 0 46.5 -18.5t18.5 -46.5v-246q0 -28 -18.5 -46.5t-46.5 -18.5q-27 0 -46.5 19t-19.5 46v180h-426q-26 0 -45.5 19t-19.5 47z" />
<glyph unicode="&#xad;" d="M115 590q0 28 18.5 46.5t46.5 18.5h492q27 0 46 -19t19 -46q0 -28 -19.5 -47t-45.5 -19h-492q-28 0 -46.5 19t-18.5 47z" />
<glyph unicode="&#xae;" horiz-adv-x="1470" d="M80 651q0 132 49 251.5t143 213.5q92 92 212 141.5t251 49.5q132 0 252.5 -49.5t212.5 -141.5q94 -94 143.5 -213.5t49.5 -251.5t-49.5 -251.5t-143.5 -213.5q-92 -92 -212.5 -142t-252.5 -50q-130 0 -250.5 50t-212.5 142q-94 94 -143 213.5t-49 251.5zM205 651 q0 -106 40 -204t115 -173t172 -115t203 -40q107 0 204.5 40t172.5 115t115.5 173t40.5 204t-40.5 203t-115.5 172t-172.5 115.5t-204.5 40.5q-106 0 -203 -40.5t-172 -115.5t-115 -172t-40 -203zM530 344v606q0 26 18.5 44t43.5 18h164q94 0 160.5 -66t66.5 -160 q0 -66 -34.5 -120t-92.5 -82l119 -209q12 -23 5.5 -47.5t-28.5 -38.5q-23 -12 -48.5 -5.5t-37.5 29.5l-141 246h-70v-215q0 -26 -18.5 -44.5t-44.5 -18.5q-25 0 -43.5 18.5t-18.5 44.5zM655 684h101q42 0 72 30t30 72t-30 71.5t-72 29.5h-101v-203z" />
<glyph unicode="&#xaf;" horiz-adv-x="1024" d="M-66 1532q0 28 19 46.5t47 18.5h1024q27 0 46.5 -19t19.5 -46t-19.5 -46.5t-46.5 -19.5h-1024q-28 0 -47 19t-19 47z" />
<glyph unicode="&#xb0;" horiz-adv-x="641" d="M78 1061q0 100 71.5 172t172.5 72q100 0 171.5 -72t71.5 -172q0 -101 -71.5 -172.5t-171.5 -71.5q-101 0 -172.5 71.5t-71.5 172.5zM197 1061q0 -53 36.5 -89t88.5 -36t88 36t36 89t-36 89t-88 36t-88.5 -36t-36.5 -89z" />
<glyph unicode="&#xb1;" d="M115 66q0 27 19 46t46 19h492q28 0 46.5 -18.5t18.5 -46.5t-18.5 -47t-46.5 -19h-492q-26 0 -45.5 19t-19.5 47zM115 590q0 27 19 46t46 19h180v181q0 27 19.5 46t46.5 19q28 0 47 -18.5t19 -46.5v-181h180q28 0 46.5 -18.5t18.5 -46.5t-18.5 -47t-46.5 -19h-180v-180 q0 -28 -19 -46.5t-47 -18.5q-27 0 -46.5 19t-19.5 46v180h-180q-26 0 -45.5 19t-19.5 47z" />
<glyph unicode="&#xb2;" horiz-adv-x="608" d="M113 1158q-6 24 6 44q44 75 125 96q85 19 155 -24q75 -43 93 -127q19 -84 -27 -154q-118 -191 -186 -295h159q25 0 42.5 -17t17.5 -42t-17.5 -42t-42.5 -17h-268q-34 0 -51 30q-18 33 2 60l246 387q19 29 10 63q-6 34 -39 54q-29 19 -64 10q-33 -9 -53 -39 q-12 -22 -35 -28.5t-45 5.5t-28 36z" />
<glyph unicode="&#xb3;" horiz-adv-x="606" d="M111 718q6 24 28 36t45 5.5t35 -28.5q15 -25 41.5 -35.5t54.5 -3.5q28 8 45 30.5t17 51.5v41q0 35 -24.5 59.5t-59.5 24.5q-25 0 -42.5 17t-17.5 42t17.5 42.5t42.5 17.5q48 0 74 41q22 43 0 86q-26 41 -74 41t-74 -41q-12 -22 -35 -28.5t-45 5.5t-28 36t6 44 q28 47 75 75t101 28t101 -28t73 -75q28 -46 28 -100.5t-28 -100.5q-12 -24 -31 -43q60 -60 60 -143v-41q0 -69 -42 -123t-108 -71q-67 -19 -130.5 7.5t-98.5 86.5q-12 20 -6 44z" />
<glyph unicode="&#xb4;" horiz-adv-x="1024" d="M345 1105.5q2 26.5 22 45.5l204 184q20 18 47 16.5t46 -22.5q19 -20 17 -46.5t-22 -45.5l-204 -184q-20 -19 -48 -17.5t-45 23.5q-19 20 -17 46.5z" />
<glyph unicode="&#xb5;" horiz-adv-x="819" d="M143 -352v1229q0 26 18 43.5t44 17.5t43.5 -17.5t17.5 -43.5v-615q0 -60 42 -101.5t102 -41.5t101.5 41.5t41.5 101.5v615q0 26 17.5 43.5t43.5 17.5t44 -17.5t18 -43.5v-820q0 -26 -18 -43.5t-44 -17.5q-45 0 -59 43q-65 -43 -145 -43q-82 0 -144 41v-389 q0 -26 -17.5 -44t-43.5 -18t-44 18t-18 44z" />
<glyph unicode="&#xb6;" horiz-adv-x="983" d="M70 991q0 127 90 217t217 90h512q26 0 44.5 -17.5t18.5 -43.5t-18.5 -44.5t-44.5 -18.5h-80v-1280q0 -26 -19 -45t-45 -19t-43.5 18.5t-17.5 45.5v1280h-162v-1280q0 -26 -18.5 -45t-44.5 -19t-44 19t-18 45v788h-20q-127 0 -217 90.5t-90 218.5zM195 991 q0 -75 53.5 -129.5t128.5 -54.5h20v367h-20q-75 0 -128.5 -54t-53.5 -129z" />
<glyph unicode="&#xb7;" horiz-adv-x="393" d="M111 795q0 35 25.5 60.5t60.5 25.5t60.5 -25.5t25.5 -60.5t-25.5 -60.5t-60.5 -25.5t-60.5 25.5t-25.5 60.5z" />
<glyph unicode="&#xb8;" horiz-adv-x="1024" d="M371.5 -193q6.5 26 29.5 39q50 29 50 86v125q0 28 18.5 47t46.5 19t47 -19t19 -47v-125q0 -62 -30.5 -114.5t-84.5 -83.5q-23 -14 -50 -7.5t-40 29.5q-12 25 -5.5 51z" />
<glyph unicode="&#xb9;" horiz-adv-x="479" d="M55 1063q0 24 17 43l182 180q24 27 63 14q37 -16 37 -55v-614q0 -25 -17 -42.5t-42 -17.5t-42 17.5t-17 42.5v473l-80 -82q-19 -17 -43 -17t-41 17t-17 41z" />
<glyph unicode="&#xba;" horiz-adv-x="624" d="M111 815v287q0 84 59 143.5t143 59.5q83 0 143 -60t60 -143v-287q0 -84 -59.5 -143.5t-143.5 -59.5q-85 0 -143.5 59t-58.5 144zM229 815q0 -35 24.5 -59.5t59.5 -24.5t59.5 24.5t24.5 59.5v287q0 35 -24.5 59.5t-59.5 24.5t-59.5 -24.5t-24.5 -59.5v-287z" />
<glyph unicode="&#xbb;" horiz-adv-x="858" d="M121 344q0 11 8 31q96 174 123 223l-115 207q-8 16 -8 31q0 39 35 57q23 14 49.5 6t38.5 -33l131 -237q19 -32 0 -64l-139 -252q-12 -25 -38.5 -32.5t-49.5 6.5q-35 18 -35 57zM489 344q0 8 9 31q96 174 123 223l-115 207q-8 16 -8 31q0 39 34 57q23 14 50 6t39 -33 l131 -237q19 -32 0 -64l-140 -252q-12 -25 -38.5 -32.5t-49.5 6.5q-35 18 -35 57z" />
<glyph unicode="&#xbc;" horiz-adv-x="1224" d="M55 1063q0 24 17 43l182 180q24 27 63 14q37 -16 37 -55v-614q0 -25 -17 -42.5t-42 -17.5t-42 17.5t-17 42.5v473l-80 -82q-19 -17 -43 -17t-41 17t-17 41zM232.5 35.5q-8.5 25.5 3.5 50.5l573 1188q12 24 37.5 33t50.5 -2q24 -12 33 -37.5t-2 -50.5l-574 -1188 q-12 -25 -37.5 -34t-50.5 3t-33.5 37.5zM672 244l182 450q9 22 32 32t46 1q37 -16 37 -55q0 -7 -4 -23q-107 -259 -152 -368h119v63q0 25 17 42t42 17t42.5 -17t17.5 -42v-63h47q25 0 42 -17.5t17 -42.5t-17 -42t-42 -17h-47v-105q0 -25 -17.5 -42t-42.5 -17t-42 17t-17 42 v105h-205q-33 0 -49 26q-19 26 -6 56z" />
<glyph unicode="&#xbd;" horiz-adv-x="1220" d="M55 1063q0 24 17 43l182 180q24 27 63 14q37 -16 37 -55v-614q0 -25 -17 -42.5t-42 -17.5t-42 17.5t-17 42.5v473l-80 -82q-19 -17 -43 -17t-41 17t-17 41zM232.5 35.5q-8.5 25.5 3.5 50.5l573 1188q12 24 37.5 33t50.5 -2q24 -12 33 -37.5t-2 -50.5l-574 -1188 q-12 -25 -37.5 -34t-50.5 3t-33.5 37.5zM768.5 585q-6.5 24 5.5 44q44 75 125 96q84 19 156 -25q74 -42 92 -127q19 -83 -27 -153q-118 -191 -186 -295h160q25 0 42 -17t17 -42t-17 -42.5t-42 -17.5h-269q-34 0 -51 31q-18 32 2 59l246 387q19 29 10 64q-6 33 -39 53 q-28 19 -63 10q-33 -9 -53 -39q-12 -22 -35 -28t-45 6t-28.5 36z" />
<glyph unicode="&#xbe;" horiz-adv-x="1286" d="M72 718q6 24 28 36t45 5.5t35 -28.5q15 -25 41.5 -35.5t54.5 -3.5q28 8 45 30.5t17 51.5v41q0 35 -24.5 59.5t-59.5 24.5q-25 0 -42 17t-17 42t17 42.5t42 17.5q48 0 74 41q22 43 0 86q-26 41 -74 41t-74 -41q-12 -22 -35 -28.5t-45 5.5t-28 36t6 44q28 47 75 75t101 28 t101 -28t73 -75q28 -46 28 -100.5t-28 -100.5q-12 -24 -31 -43q60 -60 60 -143v-41q0 -69 -42 -123t-108 -71q-67 -19 -130.5 7.5t-98.5 86.5q-12 20 -6 44zM294 35.5q-9 25.5 3 50.5l573 1188q12 24 37.5 33t50.5 -2q24 -12 33 -37.5t-2 -50.5l-573 -1188 q-12 -25 -37.5 -34t-50.5 3t-34 37.5zM733 244l182 450q9 22 32 32t46 1q37 -16 37 -55q0 -7 -4 -23q-107 -259 -152 -368h119v63q0 25 17.5 42t42.5 17t42 -17t17 -42v-63h47q25 0 42.5 -17.5t17.5 -42.5t-17.5 -42t-42.5 -17h-47v-105q0 -25 -17 -42t-42 -17t-42.5 17 t-17.5 42v105h-205q-33 0 -49 26q-19 26 -6 56z" />
<glyph unicode="&#xbf;" horiz-adv-x="731" d="M84 -88q-9 141 88 242l104 104q52 55 52 127v164q0 27 19 46t46 19q28 0 47 -18.5t19 -46.5v-164q0 -129 -90 -219l-103 -105q-57 -57 -51 -139q3 -80 70 -131q65 -49 145 -33q79 16 121 86q12 23 38.5 30t49.5 -5q24 -13 31.5 -40t-6.5 -50q-34 -59 -88.5 -98.5 t-120.5 -51.5q-134 -27 -250 58q-111 85 -121 225zM307 856q0 35 25.5 60.5t60.5 25.5t60.5 -25.5t25.5 -60.5t-25.5 -60.5t-60.5 -25.5t-60.5 25.5t-25.5 60.5z" />
<glyph unicode="&#xc0;" horiz-adv-x="884" d="M51 74l328 1188q6 22 23.5 35.5t39.5 13.5t40 -13.5t24 -35.5l328 -1188q8 -26 -6 -49.5t-42 -30.5q-26 -7 -48.5 6t-30.5 39q-27 101 -66 240h-397l-66 -240q-8 -26 -31 -39t-51 -6q-26 8 -39 31t-6 49zM273.5 1692.5q-1.5 26.5 17.5 46.5q19 21 45.5 22.5t46.5 -16.5 l205 -184q21 -19 22.5 -46t-16.5 -47q-19 -22 -45.5 -23.5t-46.5 17.5l-205 185q-22 19 -23.5 45.5zM281 410h323q-32 116 -90.5 328.5t-71.5 260.5q-12 -45 -44.5 -163.5t-62.5 -227t-54 -198.5z" />
<glyph unicode="&#xc1;" horiz-adv-x="884" d="M51 74l328 1188q6 22 23.5 35.5t39.5 13.5t40 -13.5t24 -35.5l328 -1188q8 -26 -6 -49.5t-42 -30.5q-26 -7 -48.5 6t-30.5 39q-27 101 -66 240h-397l-66 -240q-8 -26 -31 -39t-51 -6q-26 8 -39 31t-6 49zM273.5 1515q1.5 27 23.5 46l205 184q20 18 46.5 16.5t45.5 -22.5 q19 -20 17.5 -46.5t-23.5 -45.5l-205 -185q-20 -19 -46.5 -17.5t-45.5 23.5q-19 20 -17.5 47zM281 410h323q-32 116 -90.5 328.5t-71.5 260.5q-12 -45 -44.5 -163.5t-62.5 -227t-54 -198.5z" />
<glyph unicode="&#xc2;" horiz-adv-x="884" d="M51 74l328 1188q6 22 23.5 35.5t39.5 13.5t40 -13.5t24 -35.5l328 -1188q8 -26 -6 -49.5t-42 -30.5q-26 -7 -48.5 6t-30.5 39q-27 101 -66 240h-397l-66 -240q-8 -26 -31 -39t-51 -6q-26 8 -39 31t-6 49zM196.5 1520.5q2.5 25.5 22.5 40.5l184 143q17 14 39 14t39 -14 l185 -143q21 -15 24 -40.5t-14 -47.5q-15 -20 -40.5 -23t-47.5 12q-97 76 -146 113l-145 -113q-20 -15 -46.5 -12t-41.5 23q-15 22 -12.5 47.5zM281 410h323q-32 116 -90.5 328.5t-71.5 260.5q-12 -45 -44.5 -163.5t-62.5 -227t-54 -198.5z" />
<glyph unicode="&#xc3;" horiz-adv-x="884" d="M51 74l328 1188q6 22 23.5 35.5t39.5 13.5t40 -13.5t24 -35.5l328 -1188q8 -26 -6 -49.5t-42 -30.5q-26 -7 -48.5 6t-30.5 39q-27 101 -66 240h-397l-66 -240q-8 -26 -31 -39t-51 -6q-26 8 -39 31t-6 49zM197.5 1557q-4.5 26 9.5 47q45 66 123 79q81 13 143 -34l16 -13 q20 -17 46 -10q23 3 40 27q13 22 39 26.5t48 -10.5q22 -13 27 -38.5t-9 -47.5q-45 -67 -123 -80q-80 -13 -143 35l-17 12q-24 14 -47 11q-25 -3 -39 -27q-15 -22 -40 -26.5t-48 10.5q-21 13 -25.5 39zM281 410h323q-32 116 -90.5 328.5t-71.5 260.5q-12 -45 -44.5 -163.5 t-62.5 -227t-54 -198.5z" />
<glyph unicode="&#xc4;" horiz-adv-x="884" d="M51 74l328 1188q6 22 23.5 35.5t39.5 13.5t40 -13.5t24 -35.5l328 -1188q8 -26 -6 -49.5t-42 -30.5q-26 -7 -48.5 6t-30.5 39q-27 101 -66 240h-397l-66 -240q-8 -26 -31 -39t-51 -6q-26 8 -39 31t-6 49zM193 1593q0 35 25.5 60.5t60.5 25.5t60.5 -25.5t25.5 -60.5 t-25.5 -60.5t-60.5 -25.5t-60.5 25.5t-25.5 60.5zM281 410h323q-32 116 -90.5 328.5t-71.5 260.5q-12 -45 -44.5 -163.5t-62.5 -227t-54 -198.5zM520 1593q0 35 25.5 60.5t60.5 25.5t60.5 -25.5t25.5 -60.5t-25.5 -60.5t-60.5 -25.5t-60.5 25.5t-25.5 60.5z" />
<glyph unicode="&#xc5;" horiz-adv-x="884" d="M51 74l328 1188q6 22 23.5 35.5t39.5 13.5t40 -13.5t24 -35.5l328 -1188q8 -26 -6 -49.5t-42 -30.5q-26 -7 -48.5 6t-30.5 39q-27 101 -66 240h-397l-66 -240q-8 -26 -31 -39t-51 -6q-26 8 -39 31t-6 49zM268 1614q0 72 51 123t123 51q73 0 124.5 -51t51.5 -123 t-51.5 -124t-124.5 -52q-72 0 -123 52t-51 124zM281 410h323q-32 116 -90.5 328.5t-71.5 260.5q-12 -45 -44.5 -163.5t-62.5 -227t-54 -198.5zM373 1614q0 -30 20 -51t49 -21t50.5 21.5t21.5 50.5t-21 49t-51 20q-29 0 -49 -20t-20 -49z" />
<glyph unicode="&#xc6;" horiz-adv-x="1263" d="M37.5 33.5q-9.5 25.5 1.5 50.5l528 1180q16 39 62 39h493q28 0 47 -19t19 -47t-19 -47t-47 -19h-344v-434h303q28 0 47 -18.5t19 -46.5t-19 -47t-47 -19h-303v-475h344q28 0 47 -18.5t19 -46.5t-19 -47t-47 -19h-409q-27 0 -46.5 19.5t-19.5 46.5v213h-377l-110 -248 q-12 -25 -37.5 -34.5t-50.5 1.5q-25 10 -34.5 35.5zM330 410h317v712q-64 -145 -317 -712z" />
<glyph unicode="&#xc7;" horiz-adv-x="806" d="M115 303v696q0 106 64 189.5t165 111.5t199 -13t151 -132l21 -35q14 -25 7 -51t-32 -39q-23 -14 -49 -7t-39 32l-20 35q-31 52 -87.5 75.5t-115.5 8.5t-96 -64t-37 -111v-696q0 -62 36.5 -110.5t96.5 -63.5q59 -15 115.5 8.5t87.5 75.5l20 35q13 24 39 31t49 -7 q25 -13 32 -39t-7 -51l-21 -35q-33 -58 -86.5 -96.5t-115.5 -52.5v-70q0 -61 -31.5 -114t-85.5 -84q-23 -14 -49 -7.5t-39 29.5q-14 25 -7 51t31 39q49 30 49 86v70q-3 1 -8 2t-8 2q-101 28 -165 111.5t-64 189.5z" />
<glyph unicode="&#xc8;" horiz-adv-x="753" d="M139 66v1171q0 28 19 47t47 19h409q27 0 46.5 -19.5t19.5 -46.5t-19.5 -46.5t-46.5 -19.5h-344v-434h303q27 0 46.5 -19t19.5 -46t-19.5 -46.5t-46.5 -19.5h-303v-475h344q27 0 46.5 -19t19.5 -46t-19.5 -46.5t-46.5 -19.5h-409q-28 0 -47 19t-19 47zM240.5 1692.5 q-1.5 26.5 17.5 46.5q19 21 45.5 22.5t46.5 -16.5l205 -184q20 -19 21.5 -46t-17.5 -47q-17 -22 -44.5 -23.5t-47.5 17.5l-205 185q-20 19 -21.5 45.5z" />
<glyph unicode="&#xc9;" horiz-adv-x="753" d="M139 66v1171q0 28 19 47t47 19h409q27 0 46.5 -19.5t19.5 -46.5t-19.5 -46.5t-46.5 -19.5h-344v-434h303q27 0 46.5 -19t19.5 -46t-19.5 -46.5t-46.5 -19.5h-303v-475h344q27 0 46.5 -19t19.5 -46t-19.5 -46.5t-46.5 -19.5h-409q-28 0 -47 19t-19 47zM240.5 1515 q1.5 27 21.5 46l205 184q20 19 47.5 16.5t44.5 -22.5q19 -20 17.5 -46.5t-21.5 -45.5l-205 -185q-20 -19 -46.5 -17.5t-45.5 23.5q-19 20 -17.5 47z" />
<glyph unicode="&#xca;" horiz-adv-x="753" d="M139 66v1171q0 28 19 47t47 19h409q27 0 46.5 -19.5t19.5 -46.5t-19.5 -46.5t-46.5 -19.5h-344v-434h303q27 0 46.5 -19t19.5 -46t-19.5 -46.5t-46.5 -19.5h-303v-475h344q27 0 46.5 -19t19.5 -46t-19.5 -46.5t-46.5 -19.5h-409q-28 0 -47 19t-19 47zM162 1520.5 q3 25.5 24 40.5l185 143q37 29 75 0l185 -143q21 -15 24 -41t-12 -47q-17 -20 -42.5 -23t-45.5 12q-98 76 -145 113l-148 -113q-20 -15 -45.5 -12t-40.5 23q-17 22 -14 47.5z" />
<glyph unicode="&#xcb;" horiz-adv-x="753" d="M139 66v1171q0 28 19 47t47 19h409q28 0 47 -19t19 -47t-19 -47t-47 -19h-344v-434h303q28 0 47 -18.5t19 -46.5t-19 -47t-47 -19h-303v-475h344q28 0 47 -18.5t19 -46.5t-19 -47t-47 -19h-409q-28 0 -47 19t-19 47zM160 1593q0 35 25.5 60.5t60.5 25.5t60.5 -25.5 t25.5 -60.5t-25.5 -60.5t-60.5 -25.5t-60.5 25.5t-25.5 60.5zM487 1593q0 35 25.5 60.5t60.5 25.5t60.5 -25.5t25.5 -60.5t-25.5 -60.5t-60.5 -25.5t-60.5 25.5t-25.5 60.5z" />
<glyph unicode="&#xcc;" horiz-adv-x="409" d="M35.5 1692.5q-1.5 26.5 17.5 46.5q19 21 45.5 22.5t46.5 -16.5l205 -184q21 -19 22.5 -46t-16.5 -47q-19 -22 -45.5 -23.5t-46.5 17.5l-205 185q-22 19 -23.5 45.5zM139 57v1188q0 28 19 47t47 19t46.5 -19t18.5 -47v-1188q0 -28 -18.5 -46.5t-46.5 -18.5t-47 18.5 t-19 46.5z" />
<glyph unicode="&#xcd;" horiz-adv-x="409" d="M35.5 1515q1.5 27 23.5 46l205 184q20 18 46.5 16.5t45.5 -22.5q18 -20 16.5 -46.5t-22.5 -45.5l-205 -185q-20 -19 -46.5 -17.5t-45.5 23.5q-19 20 -17.5 47zM139 57v1188q0 28 19 47t47 19t46.5 -19t18.5 -47v-1188q0 -28 -18.5 -46.5t-46.5 -18.5t-47 18.5t-19 46.5z " />
<glyph unicode="&#xce;" horiz-adv-x="409" d="M-41 1520.5q3 25.5 23 40.5l184 143q17 14 39 14t39 -14l184 -143q20 -15 22.5 -40.5t-12.5 -47.5q-15 -20 -40.5 -23t-47.5 12q-98 76 -145 113l-146 -113q-22 -15 -47.5 -12t-40.5 23q-15 22 -12 47.5zM139 57v1188q0 28 19 47t47 19t46.5 -19t18.5 -47v-1188 q0 -28 -18.5 -46.5t-46.5 -18.5t-47 18.5t-19 46.5z" />
<glyph unicode="&#xcf;" horiz-adv-x="409" d="M-45 1593q0 35 25.5 60.5t60.5 25.5t60.5 -25.5t25.5 -60.5t-25.5 -60.5t-60.5 -25.5t-60.5 25.5t-25.5 60.5zM139 57v1188q0 28 19 47t47 19t46.5 -19t18.5 -47v-1188q0 -28 -18.5 -46.5t-46.5 -18.5t-47 18.5t-19 46.5zM283 1593q0 35 25.5 60.5t60.5 25.5t60.5 -25.5 t25.5 -60.5t-25.5 -60.5t-60.5 -25.5t-60.5 25.5t-25.5 60.5z" />
<glyph unicode="&#xd0;" horiz-adv-x="903" d="M6 672q0 26 18.5 43.5t43.5 17.5h98v504q0 27 19 46.5t46 19.5h246q129 0 220 -91.5t91 -220.5v-680q0 -129 -91 -220t-220 -91h-246q-27 0 -46 19t-19 47v542h-98q-25 0 -43.5 19t-18.5 45zM297 131h180q75 0 127.5 52.5t52.5 127.5v680q0 74 -52.5 127t-127.5 53h-180 v-438h139q27 0 45.5 -17.5t18.5 -43.5t-19 -45t-45 -19h-139v-477z" />
<glyph unicode="&#xd1;" horiz-adv-x="983" d="M139 57v1188q0 23 14.5 41t36.5 23q23 5 44 -5t30 -30q297 -616 449 -930v901q0 27 19.5 46.5t45.5 19.5q28 0 47 -19t19 -47v-1188q0 -23 -14 -41t-37 -22q-21 -6 -42 4t-32 31q-295 615 -449 929v-901q0 -28 -18.5 -46.5t-46.5 -18.5q-27 0 -46.5 19t-19.5 46z M245.5 1556.5q-4.5 25.5 10.5 47.5q42 66 123 79t141 -34l17 -13q23 -16 47 -10q24 3 41 27q13 22 38.5 26.5t47.5 -10.5q22 -13 27 -38.5t-9 -47.5q-45 -67 -123 -80q-80 -13 -143 35l-17 12q-24 14 -47 11q-25 -3 -39 -27q-15 -22 -40.5 -26.5t-47.5 10.5 q-22 13 -26.5 38.5z" />
<glyph unicode="&#xd2;" d="M115 303v696q0 129 91 220.5t220 91.5t220 -91.5t91 -220.5v-696q0 -129 -91 -220t-220 -91t-220 91t-91 220zM246 303q0 -75 53 -127.5t127 -52.5q75 0 127.5 52.5t52.5 127.5v696q0 74 -52.5 127.5t-127.5 53.5q-73 0 -126.5 -53.5t-53.5 -127.5v-696zM259 1692.5 q-2 26.5 15 46.5q19 20 47 22.5t48 -16.5l204 -184q20 -19 22 -46t-17 -47q-19 -22 -46 -23.5t-47 17.5l-204 185q-20 19 -22 45.5z" />
<glyph unicode="&#xd3;" d="M115 303v696q0 129 91.5 220.5t219.5 91.5q129 0 220 -91.5t91 -220.5v-696q0 -129 -91 -220t-220 -91q-128 0 -219.5 91t-91.5 220zM246 303q0 -75 53 -127.5t127 -52.5q75 0 127.5 52.5t52.5 127.5v696q0 74 -52.5 127.5t-127.5 53.5q-73 0 -126.5 -53.5t-53.5 -127.5 v-696zM259 1515q2 27 22 46l204 184q20 18 47 16.5t46 -22.5q19 -20 17 -46.5t-22 -45.5l-204 -185q-20 -19 -48 -17.5t-45 23.5q-19 20 -17 47z" />
<glyph unicode="&#xd4;" d="M115 303v696q0 129 91.5 220.5t219.5 91.5q129 0 220 -91.5t91 -220.5v-696q0 -129 -91 -220t-220 -91q-128 0 -219.5 91t-91.5 220zM181 1520q3 26 24 41l184 143q17 14 38 14t38 -14l184 -143q21 -15 24.5 -40.5t-11.5 -47.5q-17 -20 -43 -23t-46 12q-98 76 -147 113 l-145 -113q-20 -15 -45.5 -12t-42.5 23q-15 21 -12 47zM246 303q0 -75 53 -127.5t127 -52.5q75 0 127.5 52.5t52.5 127.5v696q0 74 -52.5 127.5t-127.5 53.5q-73 0 -126.5 -53.5t-53.5 -127.5v-696z" />
<glyph unicode="&#xd5;" d="M115 303v696q0 129 91 220.5t220 91.5q128 0 219.5 -91.5t91.5 -220.5v-696q0 -129 -91.5 -220t-219.5 -91q-129 0 -220 91t-91 220zM179.5 1556.5q-5.5 25.5 8.5 47.5q45 66 123 79q82 13 144 -34l16 -13q23 -16 47 -10q25 3 39 27q15 22 40 26.5t48 -10.5 q21 -13 26 -38.5t-9 -47.5q-45 -67 -123 -80q-80 -13 -144 35l-16 12q-21 14 -45 11t-41 -27q-13 -22 -38.5 -26.5t-47.5 10.5q-22 13 -27.5 38.5zM246 303q0 -75 52.5 -127.5t127.5 -52.5q74 0 127 52.5t53 127.5v696q0 74 -53.5 127.5t-126.5 53.5q-75 0 -127.5 -53.5 t-52.5 -127.5v-696z" />
<glyph unicode="&#xd6;" d="M115 303v696q0 129 91 220.5t220 91.5q128 0 219.5 -91.5t91.5 -220.5v-696q0 -129 -91.5 -220t-219.5 -91q-129 0 -220 91t-91 220zM176 1593q0 36 25 61t61 25q35 0 60.5 -25.5t25.5 -60.5t-25.5 -60.5t-60.5 -25.5q-36 0 -61 25t-25 61zM246 303q0 -75 52.5 -127.5 t127.5 -52.5q74 0 127 52.5t53 127.5v696q0 74 -53.5 127.5t-126.5 53.5q-75 0 -127.5 -53.5t-52.5 -127.5v-696zM504 1593q0 36 25 61t61 25q35 0 60.5 -25.5t25.5 -60.5t-25.5 -60.5t-60.5 -25.5q-36 0 -61 25t-25 61z" />
<glyph unicode="&#xd7;" d="M155 385q0 27 19 47l160 158l-160 158q-19 20 -19 47t19 47q20 19 47 19t47 -19l158 -160l158 160q20 19 47 19t47 -19q19 -20 19 -47t-19 -47l-160 -158l160 -158q19 -20 19 -47t-19 -47q-20 -19 -47 -19t-47 19l-158 160l-158 -160q-20 -19 -47 -19t-47 19 q-19 20 -19 47z" />
<glyph unicode="&#xd8;" horiz-adv-x="872" d="M7 -42.5q-7 25.5 5 48.5l121 221q-8 33 -8 76v696q0 129 91 220.5t220 91.5q137 0 232 -105l82 152q12 22 37 29t47 -5q23 -12 30.5 -37.5t-4.5 -48.5l-123 -221q11 -46 11 -76v-696q0 -129 -91.5 -220t-220.5 -91q-68 0 -128.5 28t-102.5 76l-82 -151 q-14 -22 -38.5 -29.5t-47.5 4.5t-30 37.5zM256 451l342 628q-24 45 -67.5 73t-94.5 28q-75 0 -127.5 -53.5t-52.5 -127.5v-548zM274 223q22 -45 65.5 -72.5t96.5 -27.5q74 0 127 52.5t53 127.5v549z" />
<glyph unicode="&#xd9;" horiz-adv-x="868" d="M123 303v942q0 28 18.5 47t46.5 19t47 -19t19 -47v-942q0 -75 52.5 -127.5t127.5 -52.5q74 0 127 52.5t53 127.5v942q0 28 19 47t47 19t46.5 -19t18.5 -47v-942q0 -129 -91 -220t-220 -91t-220 91t-91 220zM265.5 1692.5q-1.5 26.5 17.5 46.5q19 21 45.5 22.5t46.5 -16.5 l205 -184q20 -19 21.5 -46t-15.5 -47q-19 -22 -45.5 -23.5t-48.5 17.5l-205 185q-20 19 -21.5 45.5z" />
<glyph unicode="&#xda;" horiz-adv-x="868" d="M123 303v942q0 28 18.5 47t46.5 19t47 -19t19 -47v-942q0 -75 52.5 -127.5t127.5 -52.5q74 0 127 52.5t53 127.5v942q0 28 19 47t47 19t46.5 -19t18.5 -47v-942q0 -129 -91 -220t-220 -91t-220 91t-91 220zM265.5 1515q1.5 27 23.5 46l205 184q20 18 46.5 16.5 t45.5 -22.5q18 -20 16.5 -46.5t-22.5 -45.5l-205 -185q-20 -19 -46.5 -17.5t-45.5 23.5q-19 20 -17.5 47z" />
<glyph unicode="&#xdb;" horiz-adv-x="868" d="M123 303v942q0 27 19.5 46.5t45.5 19.5q28 0 47 -19t19 -47v-942q0 -75 53 -127.5t127 -52.5q75 0 127.5 52.5t52.5 127.5v942q0 27 19.5 46.5t46.5 19.5q28 0 46.5 -19t18.5 -47v-942q0 -129 -91 -220t-220 -91q-128 0 -219.5 91t-91.5 220zM189 1520q3 26 24 41 l184 143q17 14 38 14t38 -14l184 -143q21 -15 24.5 -40.5t-13.5 -47.5q-15 -20 -40.5 -23t-45.5 12q-99 76 -148 113l-145 -113q-20 -15 -45.5 -12t-42.5 23q-15 21 -12 47z" />
<glyph unicode="&#xdc;" horiz-adv-x="868" d="M123 303v942q0 27 19.5 46.5t45.5 19.5q28 0 47 -19t19 -47v-942q0 -75 53 -127.5t127 -52.5q75 0 127.5 52.5t52.5 127.5v942q0 27 19.5 46.5t46.5 19.5q28 0 46.5 -19t18.5 -47v-942q0 -129 -91 -220t-220 -91q-128 0 -219.5 91t-91.5 220zM184 1593q0 35 25.5 60.5 t60.5 25.5q36 0 61 -25t25 -61t-25 -61t-61 -25q-35 0 -60.5 25.5t-25.5 60.5zM512 1593q0 35 25.5 60.5t60.5 25.5q36 0 61 -25t25 -61t-25 -61t-61 -25q-35 0 -60.5 25.5t-25.5 60.5z" />
<glyph unicode="&#xdd;" horiz-adv-x="823" d="M64 1266.5q8 26.5 32 38.5q25 11 50.5 2t37.5 -33q154 -308 228 -455l229 455q12 24 37.5 33t50.5 -2q23 -12 32 -38.5t-3 -49.5l-281 -562v-598q0 -28 -18.5 -46.5t-46.5 -18.5q-27 0 -46.5 19t-19.5 46v598l-278 562q-12 23 -4 49.5zM244.5 1515q1.5 27 21.5 46 l205 184q20 18 46.5 16.5t45.5 -22.5q19 -20 17.5 -46.5t-21.5 -45.5l-205 -185q-22 -19 -48.5 -17.5t-45.5 23.5q-17 20 -15.5 47z" />
<glyph unicode="&#xde;" horiz-adv-x="819" d="M139 57v1180q0 28 19 47t47 19q27 0 46 -19.5t19 -46.5v-193h181q128 0 219.5 -91t91.5 -220v-123q0 -129 -91.5 -220t-219.5 -91h-181v-242q0 -27 -19 -46t-46 -19q-28 0 -47 18.5t-19 46.5zM270 430h181q74 0 127 52.5t53 127.5v123q0 73 -53.5 126.5t-126.5 53.5h-181 v-483z" />
<glyph unicode="&#xdf;" horiz-adv-x="876" d="M143 57v1024q0 74 38 137.5t104 98.5q64 34 137.5 30.5t134.5 -44.5q55 -37 87 -96.5t32 -125.5q0 -16 -2 -26q-9 -92 -72 -158q71 -41 113.5 -111.5t42.5 -154.5v-328q0 -127 -90 -217t-217 -90q-26 0 -44 17.5t-18 43.5t18 44t44 18q77 0 130.5 53.5t53.5 130.5v328 q0 77 -53.5 130.5t-130.5 53.5q-22 0 -40 14t-22 35q-3 22 7 41.5t30 28.5l39 14q36 15 59.5 47t28.5 72q3 40 -14.5 75.5t-49.5 57.5q-33 23 -72.5 25t-74.5 -17q-76 -44 -76 -127v-1024q0 -26 -18 -43.5t-43 -17.5q-26 0 -44 17.5t-18 43.5z" />
<glyph unicode="&#xe0;" horiz-adv-x="720" d="M61 270q0 110 78.5 188.5t188.5 78.5h143v139q0 42 -23.5 76.5t-62.5 52.5q-39 15 -81 7t-71 -38q-19 -19 -44 -19t-44 19t-19 44t19 42q57 57 135 73t152 -15t118 -97t44 -145v-610q0 -26 -18.5 -44t-43.5 -18h-204q-110 0 -188.5 78t-78.5 188zM184 270 q0 -60 42 -101.5t102 -41.5h143v287h-143q-60 0 -102 -42t-42 -102zM203.5 1283q-1.5 25 15.5 44t42.5 20t45.5 -16l205 -184q19 -17 20 -42t-16 -44t-42 -20t-44 16l-205 184q-20 17 -21.5 42z" />
<glyph unicode="&#xe1;" horiz-adv-x="720" d="M61 270q0 110 78.5 188.5t188.5 78.5h143v139q0 42 -23.5 76.5t-62.5 52.5q-39 15 -81 7t-71 -38q-19 -19 -44 -19t-44 19q-17 19 -17 44t17 42q57 57 135 73t152 -15t118 -97t44 -145v-610q0 -26 -18.5 -44t-43.5 -18h-204q-110 0 -188.5 78t-78.5 188zM184 270 q0 -60 42 -101.5t102 -41.5h143v287h-143q-60 0 -102 -42t-42 -102zM203.5 1105q1.5 25 21.5 42l205 184q19 17 44 16t42 -20t16 -44t-20 -42l-205 -184q-20 -17 -44.5 -16t-43.5 20q-17 19 -15.5 44z" />
<glyph unicode="&#xe2;" horiz-adv-x="720" d="M61 270q0 110 78.5 188.5t188.5 78.5h143v139q0 42 -23.5 76.5t-62.5 52.5q-39 15 -81 7t-71 -38q-19 -19 -44 -19t-44 19q-17 19 -17 44t17 42q57 57 135 73t152 -15t118 -97t44 -145v-610q0 -26 -18.5 -44t-43.5 -18h-204q-110 0 -188.5 78t-78.5 188zM126 1109.5 q3 24.5 21 37.5l185 143q38 26 71 0l185 -143q20 -13 22.5 -37.5t-12.5 -44.5q-13 -18 -37.5 -21t-44.5 11q-100 79 -147 116l-150 -116q-19 -14 -43 -11t-39 21q-14 20 -11 44.5zM184 270q0 -60 42 -101.5t102 -41.5h143v287h-143q-60 0 -102 -42t-42 -102z" />
<glyph unicode="&#xe3;" horiz-adv-x="720" d="M61 270q0 110 78.5 188.5t188.5 78.5h143v139q0 42 -23.5 76.5t-62.5 52.5q-39 15 -81 7t-71 -38q-19 -19 -44 -19t-44 19q-17 19 -17 44t17 42q57 57 135 73t152 -15t118 -97t44 -145v-610q0 -26 -18 -44t-44 -18h-204q-110 0 -188.5 78t-78.5 188zM127.5 1147.5 q-4.5 24.5 7.5 44.5q47 66 121 78q78 13 139 -33l17 -12q23 -20 49 -13q27 3 43 29q13 20 37.5 24t44.5 -8q20 -13 24 -37t-8 -44q-47 -66 -121 -78q-79 -13 -139 32l-16 13q-22 16 -50 12q-27 -3 -43 -29q-13 -20 -37 -24t-44 8q-20 13 -24.5 37.5zM184 270 q0 -60 42 -101.5t102 -41.5h143v287h-143q-60 0 -102 -42t-42 -102z" />
<glyph unicode="&#xe4;" horiz-adv-x="720" d="M61 270q0 110 78.5 188.5t188.5 78.5h143v139q0 42 -23.5 76.5t-62.5 52.5q-39 15 -81 7t-71 -38q-19 -19 -44 -19t-44 19q-17 19 -17 44t17 42q57 57 135 73t152 -15t118 -97t44 -145v-610q0 -26 -18.5 -44t-43.5 -18h-204q-110 0 -188.5 78t-78.5 188zM123 1184 q0 34 24 58t58 24t58 -24t24 -58t-24 -58t-58 -24t-58 24t-24 58zM184 270q0 -60 42 -101.5t102 -41.5h143v287h-143q-60 0 -102 -42t-42 -102zM451 1184q0 34 23.5 58t57.5 24t58 -24t24 -58t-24 -58t-58 -24t-57.5 24t-23.5 58z" />
<glyph unicode="&#xe5;" horiz-adv-x="720" d="M61 270q0 110 78.5 188.5t188.5 78.5h143v139q0 43 -23 77.5t-63 51.5q-38 16 -80.5 7.5t-71.5 -38.5q-19 -19 -44 -19t-42 19q-19 19 -19 44t19 42q56 57 133.5 73t151.5 -15t118 -97t44 -145v-610q0 -26 -18 -44t-44 -18h-204q-110 0 -188.5 78t-78.5 188zM184 270 q0 -60 42 -101.5t102 -41.5h143v287h-143q-60 0 -102 -42t-42 -102zM197 1204q0 70 50.5 121t121.5 51t121.5 -51t50.5 -121t-50.5 -121t-121.5 -51t-121.5 51t-50.5 121zM295 1204q0 -31 21.5 -52.5t52.5 -21.5t52 21.5t21 52.5t-21 52.5t-52 21.5t-52.5 -21.5t-21.5 -52.5 z" />
<glyph unicode="&#xe6;" horiz-adv-x="1107" d="M67.5 210.5q-15.5 79.5 16.5 154.5q31 74 98 118.5t148 44.5h143v144q0 43 -24 79.5t-64 53.5q-41 16 -84.5 7.5t-73.5 -40.5q-17 -17 -42 -17t-44 17q-19 19 -19 44t19 44q57 57 136.5 73t152.5 -15q63 -25 105 -76q80 96 204 96q109 0 188 -78t79 -188v-205 q0 -26 -18.5 -43.5t-43.5 -17.5h-348v-144q0 -43 24 -79.5t64 -53.5t82.5 -8.5t73.5 39.5q19 19 44 19t44 -19q17 -17 17 -42t-17 -44q-59 -57 -137.5 -73t-153.5 15q-58 23 -102 76q-42 -51 -105 -76q-73 -31 -152.5 -15t-136.5 73q-58 57 -73.5 136.5zM197 317 q-36 -87 30 -157q31 -31 74 -39.5t84 8.5q40 17 64 53.5t24 79.5v144h-143q-44 0 -80 -24.5t-53 -64.5zM596 528h287v144q0 60 -42.5 101.5t-101.5 41.5q-60 0 -101.5 -41.5t-41.5 -101.5v-144z" />
<glyph unicode="&#xe7;" horiz-adv-x="677" d="M119 262v410q0 81 45 148t119 98q75 31 154 15t136 -73q19 -19 19 -44t-19 -44q-19 -17 -44 -17t-42 17q-30 32 -73 40.5t-84 -7.5q-40 -17 -64 -53.5t-24 -79.5v-410q0 -43 24 -79.5t64 -53.5q30 -10 53 -10h2h2q56 0 100 41q17 19 42 19t44 -19q19 -17 19 -42t-19 -44 q-53 -53 -127 -72v-70q0 -60 -30 -112.5t-82 -83.5q-22 -12 -47 -6t-37 28q-12 23 -6 47.5t28 36.5q52 28 52 90v70q-25 7 -41 14q-74 31 -119 98t-45 148z" />
<glyph unicode="&#xe8;" horiz-adv-x="753" d="M119 262v410q0 110 78.5 188t187.5 78q110 0 188 -78t78 -188v-205q0 -26 -17.5 -43.5t-43.5 -17.5h-348v-144q0 -43 24 -79.5t64 -53.5q41 -17 83.5 -8.5t73.5 39.5q17 19 42 19t44 -19q19 -17 19 -42t-19 -44q-57 -57 -136 -73t-154 15q-74 31 -119 98t-45 148z M222 1283q-1 25 16 44t42 20t44 -16l204 -184q20 -17 21.5 -42t-17.5 -44q-17 -19 -42 -20t-44 16l-204 184q-19 17 -20 42zM242 528h286v144q0 60 -41.5 101.5t-101.5 41.5q-59 0 -101 -41.5t-42 -101.5v-144z" />
<glyph unicode="&#xe9;" horiz-adv-x="753" d="M119 262v410q0 110 78.5 188t187.5 78q110 0 188 -78t78 -188v-205q0 -26 -17.5 -43.5t-43.5 -17.5h-348v-144q0 -43 24 -79.5t64 -53.5q41 -17 83.5 -8.5t73.5 39.5q17 19 42 19t44 -19q19 -17 19 -42t-19 -44q-57 -57 -135.5 -73t-152.5 15q-75 31 -120.5 98t-45.5 148 zM222 1105q1 25 20 42l204 184q20 17 45 16t44 -20q17 -19 15 -44t-22 -42l-204 -184q-19 -17 -44 -16t-42 20t-16 44zM242 528h286v144q0 60 -41.5 101.5t-101.5 41.5q-59 0 -101 -41.5t-42 -101.5v-144z" />
<glyph unicode="&#xea;" horiz-adv-x="753" d="M119 262v410q0 110 78.5 188t187.5 78q110 0 188 -78t78 -188v-205q0 -26 -17.5 -43.5t-43.5 -17.5h-348v-144q0 -43 24.5 -79.5t65.5 -53.5q40 -17 82 -8.5t73 39.5q19 19 44 19t42 -19q19 -17 19 -42t-19 -44q-57 -57 -135.5 -73t-152.5 15q-75 31 -120.5 98t-45.5 148 zM143.5 1109.5q2.5 24.5 22.5 37.5l184 143q15 12 36 12t36 -12l184 -143q18 -13 21 -37.5t-11 -44.5q-15 -18 -38.5 -21t-42.5 11q-103 79 -150 116l-147 -116q-20 -14 -44.5 -11t-37.5 21q-15 20 -12.5 44.5zM242 528h286v144q0 60 -41.5 101.5t-101.5 41.5 q-59 0 -101 -41.5t-42 -101.5v-144z" />
<glyph unicode="&#xeb;" horiz-adv-x="753" d="M119 262v410q0 110 78.5 188t187.5 78q110 0 188 -78t78 -188v-205q0 -26 -17.5 -43.5t-43.5 -17.5h-348v-144q0 -43 24.5 -79.5t65.5 -53.5q40 -17 82 -8.5t73 39.5q19 19 44 19t42 -19q19 -17 19 -42t-19 -44q-57 -57 -135.5 -73t-152.5 15q-75 31 -120.5 98t-45.5 148 zM139 1184q0 34 24 58t58 24t58 -24t24 -58t-24 -58t-58 -24t-58 24t-24 58zM242 528h286v144q0 60 -41.5 101.5t-101.5 41.5q-59 0 -101 -41.5t-42 -101.5v-144zM467 1184q0 34 24 58t58 24t58 -24t24 -58t-24 -58t-58 -24t-58 24t-24 58z" />
<glyph unicode="&#xec;" horiz-adv-x="409" d="M0 1283q-1 25 16 44t42.5 20t45.5 -16l205 -184q19 -17 20 -42t-16 -44t-42.5 -20t-45.5 16l-205 184q-19 17 -20 42zM143 57v820q0 26 18.5 43.5t43.5 17.5q26 0 43.5 -17.5t17.5 -43.5v-820q0 -26 -17.5 -43.5t-43.5 -17.5q-25 0 -43.5 17.5t-18.5 43.5z" />
<glyph unicode="&#xed;" horiz-adv-x="409" d="M80.5 1105q1.5 25 21.5 42l205 184q19 17 44 16t42 -20t16 -44t-20 -42l-205 -184q-20 -17 -45.5 -16t-42.5 20t-15.5 44zM143 57v820q0 26 18 43.5t44 17.5q25 0 43 -17.5t18 -43.5v-820q0 -26 -18 -43.5t-43 -17.5q-26 0 -44 17.5t-18 43.5z" />
<glyph unicode="&#xee;" horiz-adv-x="409" d="M-36.5 1109q3.5 24 22.5 38l184 143q15 12 36 12t36 -12l184 -143q20 -13 22.5 -37.5t-12.5 -44.5q-15 -19 -38.5 -21.5t-43.5 11.5q-102 79 -147 116l-150 -116q-19 -14 -43 -11t-39 21q-15 20 -11.5 44zM145 57v820q0 26 18 43.5t44 17.5q25 0 43 -17.5t18 -43.5v-820 q0 -26 -18 -43.5t-43 -17.5q-26 0 -44 17.5t-18 43.5z" />
<glyph unicode="&#xef;" horiz-adv-x="409" d="M-41 1184q0 34 24 58t58 24t58 -24t24 -58t-24 -58t-58 -24t-58 24t-24 58zM143 57v820q0 26 18 43.5t44 17.5q25 0 43 -17.5t18 -43.5v-820q0 -26 -18 -43.5t-43 -17.5q-26 0 -44 17.5t-18 43.5zM287 1184q0 34 24 58t58 24t58 -24t24 -58t-24 -58t-58 -24t-58 24 t-24 58z" />
<glyph unicode="&#xf0;" horiz-adv-x="770" d="M119 262v410q0 110 78 188t188 78q53 0 96 -18q-39 96 -98 172l-88 -60q-20 -12 -44.5 -7.5t-37.5 24.5q-12 20 -8 44t24 37l72 48q-31 27 -76 57q-20 13 -25 38.5t9 47.5q13 20 38.5 25t47.5 -9q59 -41 111 -90l69 47q20 12 44.5 8t37.5 -24q14 -20 9 -44.5t-25 -37.5 l-56 -37q47 -60 72 -110q94 -177 94 -377v-410q0 -110 -78 -188t-188 -78t-188 78t-78 188zM242 262q0 -60 41.5 -101.5t101.5 -41.5t101.5 41.5t41.5 101.5v410q0 60 -41.5 101.5t-101.5 41.5t-101.5 -41.5t-41.5 -101.5v-410z" />
<glyph unicode="&#xf1;" horiz-adv-x="802" d="M143 57v811q0 26 18 44t44 18h205q109 0 187.5 -78t78.5 -188v-607q0 -26 -18.5 -43.5t-43.5 -17.5q-26 0 -43.5 17.5t-17.5 43.5v607q0 60 -42 101.5t-101 41.5h-144v-750q0 -26 -18 -43.5t-43 -17.5q-26 0 -44 17.5t-18 43.5zM168 1148q-5 24 8 44q43 65 121 78 q75 12 139 -33l17 -12q22 -19 49 -13q27 3 43 29q13 20 36.5 24t45.5 -8q20 -13 24 -37t-8 -44q-47 -66 -121 -78q-79 -13 -139 32l-16 13q-22 15 -52 12q-28 -4 -41 -29q-13 -20 -37 -24t-44 8q-20 14 -25 38z" />
<glyph unicode="&#xf2;" horiz-adv-x="770" d="M119 262v410q0 110 78 188t188 78t188 -78t78 -188v-410q0 -110 -78 -188t-188 -78t-188 78t-78 188zM220.5 1283q-1.5 25 17.5 44q17 19 42 20t44 -16l204 -184q19 -17 20 -42t-16 -44t-42 -20t-44 16l-204 184q-20 17 -21.5 42zM242 262q0 -60 41.5 -101.5t101.5 -41.5 q59 0 101 41.5t42 101.5v410q0 60 -42 101.5t-101 41.5q-60 0 -101.5 -41.5t-41.5 -101.5v-410z" />
<glyph unicode="&#xf3;" horiz-adv-x="770" d="M119 262v410q0 110 78 188t188 78t188 -78t78 -188v-410q0 -110 -78 -188t-188 -78t-188 78t-78 188zM222 1105q1 25 20 42l204 184q19 17 44 16t42 -20t16 -44t-20 -42l-204 -184q-19 -17 -44 -16t-42 20t-16 44zM242 262q0 -60 41.5 -101.5t101.5 -41.5t101.5 41.5 t41.5 101.5v410q0 60 -41.5 101.5t-101.5 41.5t-101.5 -41.5t-41.5 -101.5v-410z" />
<glyph unicode="&#xf4;" horiz-adv-x="770" d="M119 262v410q0 110 78 188t188 78t188 -78t78 -188v-410q0 -110 -78 -188t-188 -78t-188 78t-78 188zM143 1109.5q3 24.5 21 37.5l184 143q17 12 37 12t35 -12l184 -143q20 -13 22.5 -37.5t-12.5 -44.5q-13 -18 -37.5 -21t-44.5 11q-100 79 -147 116l-149 -116 q-19 -14 -43 -11t-39 21q-14 20 -11 44.5zM242 262q0 -60 41.5 -101.5t101.5 -41.5t101.5 41.5t41.5 101.5v410q0 60 -41.5 101.5t-101.5 41.5t-101.5 -41.5t-41.5 -101.5v-410z" />
<glyph unicode="&#xf5;" horiz-adv-x="770" d="M119 262v410q0 110 78 188t188 78t188 -78t78 -188v-410q0 -110 -78 -188t-188 -78t-188 78t-78 188zM144 1147.5q-4 24.5 8 44.5q47 66 120 78q78 13 140 -33l16 -12q23 -20 49 -13q30 3 43 29q13 20 37.5 24t44.5 -8q20 -13 25 -37t-9 -44q-47 -66 -120 -78 q-80 -13 -140 32l-16 13q-22 15 -49 12t-43 -29q-13 -20 -37.5 -24t-44.5 8q-20 13 -24 37.5zM242 262q0 -60 42 -101.5t101 -41.5q60 0 101.5 41.5t41.5 101.5v410q0 60 -41.5 101.5t-101.5 41.5q-59 0 -101 -41.5t-42 -101.5v-410z" />
<glyph unicode="&#xf6;" horiz-adv-x="770" d="M119 262v410q0 110 78 188t188 78t188 -78t78 -188v-410q0 -110 -78 -188t-188 -78t-188 78t-78 188zM139 1184q0 34 24 58t58 24t58 -24t24 -58t-24 -58t-58 -24t-58 24t-24 58zM242 262q0 -60 41.5 -101.5t101.5 -41.5t101.5 41.5t41.5 101.5v410q0 60 -41.5 101.5 t-101.5 41.5t-101.5 -41.5t-41.5 -101.5v-410zM467 1184q0 34 24 58t58 24t58 -24t24 -58t-24 -58t-58 -24t-58 24t-24 58z" />
<glyph unicode="&#xf7;" d="M115 590q0 28 18.5 46.5t46.5 18.5h492q27 0 46 -19t19 -46q0 -28 -19.5 -47t-45.5 -19h-492q-28 0 -46.5 19t-18.5 47zM340 324q0 36 25 61t61 25q35 0 60.5 -25.5t25.5 -60.5t-25.5 -60.5t-60.5 -25.5q-36 0 -61 25t-25 61zM340 856q0 36 25 61t61 25q35 0 60.5 -25.5 t25.5 -60.5t-25.5 -60.5t-60.5 -25.5q-36 0 -61 25t-25 61z" />
<glyph unicode="&#xf8;" horiz-adv-x="790" d="M51.5 -40q-6.5 24 5.5 44l93 156q-21 50 -21 102v410q0 110 78 188t188 78q100 0 170 -61l66 110q12 21 36 27.5t44 -4.5q21 -12 27 -36t-5 -44l-92 -158q21 -54 21 -100v-410q0 -110 -78.5 -188t-188.5 -78q-100 0 -170 61l-65 -110q-12 -22 -36 -28.5t-44 5.5 q-22 12 -28.5 36zM252 338l250 428q-43 49 -107 49q-60 0 -101.5 -41.5t-41.5 -101.5v-334zM289 168q40 -49 106 -49q60 0 102 41.5t42 101.5v334z" />
<glyph unicode="&#xf9;" horiz-adv-x="802" d="M127 270v607q0 26 18 43.5t43 17.5q26 0 44 -17.5t18 -43.5v-607q0 -60 42 -101.5t101 -41.5h144v750q0 26 18 43.5t43 17.5q26 0 43.5 -17.5t17.5 -43.5v-811q0 -26 -17.5 -44t-43.5 -18h-205q-109 0 -187.5 78t-78.5 188zM230 1283q-1 25 16 44t42 20t44 -16l205 -184 q20 -17 21.5 -42t-15.5 -44q-19 -19 -43.5 -20t-44.5 16l-205 184q-19 17 -20 42z" />
<glyph unicode="&#xfa;" horiz-adv-x="802" d="M127 270v607q0 26 18 43.5t43 17.5q26 0 44 -17.5t18 -43.5v-607q0 -60 42 -101.5t101 -41.5h144v750q0 26 18 43.5t43 17.5q26 0 43.5 -17.5t17.5 -43.5v-811q0 -26 -17.5 -44t-43.5 -18h-205q-109 0 -187.5 78t-78.5 188zM230 1105q1 25 20 42l205 184q20 17 45.5 16 t42.5 -20t15.5 -44t-21.5 -42l-205 -184q-19 -17 -44 -16t-42 20t-16 44z" />
<glyph unicode="&#xfb;" horiz-adv-x="802" d="M127 270v607q0 26 18 43.5t43 17.5q26 0 44 -17.5t18 -43.5v-607q0 -60 42 -101.5t101 -41.5h144v750q0 26 18 43.5t43 17.5q26 0 43.5 -17.5t17.5 -43.5v-811q0 -26 -17.5 -44t-43.5 -18h-205q-109 0 -187.5 78t-78.5 188zM152 1109q3 24 22 38l184 143q15 12 36 12 t36 -12l184 -143q19 -14 22.5 -38t-11.5 -44q-15 -18 -39 -21t-43 11q-103 79 -150 116l-147 -116q-20 -14 -43.5 -11.5t-38.5 21.5q-15 20 -12 44z" />
<glyph unicode="&#xfc;" horiz-adv-x="802" d="M127 270v607q0 26 18 43.5t43 17.5q26 0 44 -17.5t18 -43.5v-607q0 -60 42 -101.5t101 -41.5h144v750q0 26 18 43.5t43 17.5q26 0 43.5 -17.5t17.5 -43.5v-811q0 -26 -17.5 -44t-43.5 -18h-205q-109 0 -187.5 78t-78.5 188zM147 1184q0 34 24 58t58 24q35 0 58.5 -24 t23.5 -58t-23.5 -58t-58.5 -24q-34 0 -58 24t-24 58zM475 1184q0 34 24 58t58 24q35 0 58.5 -24t23.5 -58t-23.5 -58t-58.5 -24q-34 0 -58 24t-24 58z" />
<glyph unicode="&#xfd;" horiz-adv-x="755" d="M41 -352q0 26 18 43.5t43 17.5q47 0 86 28.5t52 74.5l73 245l-239 801q-8 25 4 48t37 30q25 6 47 -6t28 -35l189 -625l186 625q8 23 29.5 35t46.5 6q25 -7 37 -30t4 -48l-246 -819l-78 -262q-25 -85 -96 -137q-73 -54 -160 -54q-25 0 -43 18t-18 44zM213 1105q1 25 20 42 l205 184q20 17 45.5 16t42.5 -20t16 -44t-20 -42l-205 -184q-20 -17 -45.5 -16t-42.5 20t-16 44z" />
<glyph unicode="&#xfe;" horiz-adv-x="794" d="M143 -352v1638q0 26 18 44t44 18t43.5 -18t17.5 -44v-348h144q110 0 188 -78t78 -188v-410q0 -110 -78 -188t-188 -78h-144v-348q0 -26 -17.5 -44t-43.5 -18t-44 18t-18 44zM266 119h144q60 0 101.5 41.5t41.5 101.5v410q0 60 -41.5 101.5t-101.5 41.5h-144v-696z" />
<glyph unicode="&#xff;" horiz-adv-x="755" d="M41 -352q0 26 18 43.5t43 17.5q47 0 86 28.5t52 74.5l73 245l-239 801q-8 25 4 48t37 30q25 6 47 -6t28 -35l189 -625l186 625q8 23 29.5 35t46.5 6q25 -7 37 -30t4 -48l-246 -819l-78 -262q-25 -85 -96 -137q-73 -54 -160 -54q-25 0 -43 18t-18 44zM133 1184q0 34 24 58 t58 24t58 -24t24 -58t-24 -58t-58 -24t-58 24t-24 58zM461 1184q0 34 24 58t58 24t58 -24t24 -58t-24 -58t-58 -24t-58 24t-24 58z" />
<glyph unicode="&#x152;" horiz-adv-x="1220" d="M115 303v696q0 129 91 220.5t220 91.5q99 0 182 -60q5 22 23 37t41 15h409q27 0 46.5 -19.5t19.5 -46.5t-19.5 -46.5t-46.5 -19.5h-344v-213v-221h303q27 0 46.5 -19t19.5 -46t-19.5 -46.5t-46.5 -19.5h-303v-262v-213h344q27 0 46.5 -19t19.5 -46t-19.5 -46.5 t-46.5 -19.5h-409q-23 0 -41 14.5t-23 36.5q-81 -59 -182 -59q-129 0 -220 91t-91 220zM246 303q0 -75 52.5 -127.5t127.5 -52.5q74 0 127 52.5t53 127.5v41v614v41q0 74 -53.5 127.5t-126.5 53.5q-75 0 -127.5 -53.5t-52.5 -127.5v-696z" />
<glyph unicode="&#x153;" horiz-adv-x="1163" d="M119 262v410q0 110 78 188t188 78q125 0 205 -96q80 96 205 96q109 0 187.5 -78t78.5 -188v-205q0 -26 -18.5 -43.5t-43.5 -17.5h-348v-144q0 -43 24 -79.5t64 -53.5t82.5 -8.5t73.5 39.5q19 19 44 19t44 -19q17 -17 17 -42t-17 -44q-59 -57 -137.5 -73t-153.5 15 q-58 23 -102 76q-80 -96 -205 -96q-110 0 -188 78t-78 188zM242 262q0 -60 41.5 -101.5t101.5 -41.5q59 0 101 41.5t42 101.5v410q0 60 -42 101.5t-101 41.5q-60 0 -101.5 -41.5t-41.5 -101.5v-410zM651 528h287v144q0 60 -42 101.5t-101 41.5q-60 0 -102 -41.5t-42 -101.5 v-144z" />
<glyph unicode="&#x178;" horiz-adv-x="823" d="M62 1266.5q8 26.5 32 38.5q25 11 50.5 2t37.5 -33q154 -308 228 -455l229 455q12 24 37.5 33t50.5 -2q23 -12 32 -38.5t-3 -49.5l-281 -562v-598q0 -28 -18.5 -46.5t-46.5 -18.5q-27 0 -46.5 19t-19.5 46v598l-278 562q-12 23 -4 49.5zM160 1593q0 35 25.5 60.5 t60.5 25.5q36 0 61 -25t25 -61t-25 -61t-61 -25q-35 0 -60.5 25.5t-25.5 60.5zM487 1593q0 35 25.5 60.5t60.5 25.5q36 0 61 -25t25 -61t-25 -61t-61 -25q-35 0 -60.5 25.5t-25.5 60.5z" />
<glyph unicode="&#x2c6;" horiz-adv-x="1024" d="M263 1109.5q4 26.5 26 43.5l184 143q17 14 39 14t41 -14l184 -143q21 -17 24.5 -44t-11.5 -48q-17 -22 -44 -24.5t-49 14.5q-96 73 -145 110l-143 -110q-22 -17 -49 -14.5t-44 24.5t-13 48.5z" />
<glyph unicode="&#x2dc;" horiz-adv-x="1024" d="M263.5 1146q-5.5 27 8.5 50q44 66 125 82q83 13 146 -35l16 -12q21 -15 45 -12q25 6 37 24q15 23 42 28.5t50 -9.5q23 -13 28.5 -40.5t-9.5 -50.5q-44 -65 -125 -81q-84 -13 -146 34l-16 13q-18 15 -45 12q-26 -7 -37 -27q-15 -22 -42 -27t-50 9q-22 15 -27.5 42z" />
<glyph unicode="&#x2000;" horiz-adv-x="894" />
<glyph unicode="&#x2001;" horiz-adv-x="1788" />
<glyph unicode="&#x2002;" horiz-adv-x="894" />
<glyph unicode="&#x2003;" horiz-adv-x="1788" />
<glyph unicode="&#x2004;" horiz-adv-x="596" />
<glyph unicode="&#x2005;" horiz-adv-x="447" />
<glyph unicode="&#x2006;" horiz-adv-x="298" />
<glyph unicode="&#x2007;" horiz-adv-x="298" />
<glyph unicode="&#x2008;" horiz-adv-x="223" />
<glyph unicode="&#x2009;" horiz-adv-x="357" />
<glyph unicode="&#x200a;" horiz-adv-x="99" />
<glyph unicode="&#x2010;" d="M115 590q0 28 18.5 46.5t46.5 18.5h492q27 0 46 -19t19 -46q0 -28 -19.5 -47t-45.5 -19h-492q-28 0 -46.5 19t-18.5 47z" />
<glyph unicode="&#x2011;" d="M115 590q0 28 18.5 46.5t46.5 18.5h492q27 0 46 -19t19 -46q0 -28 -19.5 -47t-45.5 -19h-492q-28 0 -46.5 19t-18.5 47z" />
<glyph unicode="&#x2012;" d="M115 590q0 28 18.5 46.5t46.5 18.5h492q27 0 46 -19t19 -46q0 -28 -19.5 -47t-45.5 -19h-492q-28 0 -46.5 19t-18.5 47z" />
<glyph unicode="&#x2013;" horiz-adv-x="1024" d="M-66 590q0 27 19.5 46t46.5 19h1024q28 0 47 -18.5t19 -46.5t-19 -47t-47 -19h-1024q-27 0 -46.5 19.5t-19.5 46.5z" />
<glyph unicode="&#x2014;" horiz-adv-x="2048" d="M-66 590q0 27 19.5 46t46.5 19h2048q28 0 47 -18.5t19 -46.5t-19 -47t-47 -19h-2048q-27 0 -46.5 19.5t-19.5 46.5z" />
<glyph unicode="&#x2018;" horiz-adv-x="393" d="M100 1049v98q0 51 29 93.5t76 62.5q23 10 47 0t35 -33q9 -25 -1 -49t-34 -33q-27 -14 -27 -41v-37h4q25 0 43.5 -17.5t18.5 -43.5t-18.5 -45t-43.5 -19h-65q-26 0 -45 19t-19 45z" />
<glyph unicode="&#x2019;" horiz-adv-x="393" d="M100 1237q0 26 18.5 43.5t45.5 17.5h65q25 0 43.5 -17.5t18.5 -43.5v-98q0 -51 -29 -93.5t-76 -62.5q-23 -10 -47 0t-35 33q-9 25 1 49t34 33q27 10 27 41v35h-2q-26 0 -45 18.5t-19 44.5z" />
<glyph unicode="&#x201a;" horiz-adv-x="391" d="M100 98q0 26 19 44t45 18h65q25 0 43.5 -18t18.5 -44v-98q0 -51 -29 -93.5t-76 -62.5q-23 -10 -47 0t-35 33q-9 25 1 49t34 33q27 10 27 41v35h-2q-26 0 -45 18.5t-19 44.5z" />
<glyph unicode="&#x201c;" horiz-adv-x="759" d="M100 1049v98q0 51 28 93.5t75 62.5q25 10 49 0t33 -33q10 -25 0 -49t-33 -33q-27 -14 -27 -41v-37h2q27 0 45.5 -17.5t18.5 -43.5t-19 -45t-45 -19h-65q-26 0 -44 19t-18 45zM469 1049v98q0 51 27.5 93.5t74.5 62.5q25 10 49 0t33 -33q10 -25 0.5 -49t-32.5 -33 q-27 -14 -27 -41v-37h2q26 0 44.5 -17.5t18.5 -43.5t-18.5 -45t-44.5 -19h-66q-26 0 -43.5 18.5t-17.5 45.5z" />
<glyph unicode="&#x201d;" horiz-adv-x="761" d="M102 1237q0 26 18 43.5t44 17.5h65q27 0 45.5 -17.5t18.5 -43.5v-98q0 -51 -29 -93.5t-76 -62.5q-25 -10 -49 0t-33 33q-10 25 0 49t33 33q29 11 29 41v35h-4q-26 0 -44 18.5t-18 44.5zM471 1237q0 26 17.5 43.5t43.5 17.5h66q27 0 45.5 -17.5t18.5 -43.5v-98 q0 -51 -29 -93.5t-76 -62.5q-25 -10 -49 0t-33 33q-10 25 0 49t33 33q29 11 29 41v35h-5q-26 0 -43.5 18.5t-17.5 44.5z" />
<glyph unicode="&#x201e;" horiz-adv-x="761" d="M100 98q0 26 19 44t45 18h65q26 0 44 -18t18 -44v-98q0 -51 -28 -93.5t-75 -62.5q-25 -10 -49 0t-33 33q-10 25 0 49t33 33q27 10 27 41v35h-2q-26 0 -45 18.5t-19 44.5zM469 98q0 26 18.5 44t44.5 18h66q26 0 43.5 -18t17.5 -44v-98q0 -51 -27.5 -93.5t-74.5 -62.5 q-25 -10 -49 0t-33 33q-10 25 0 49t33 33q27 10 27 41v35h-3q-26 0 -44.5 18.5t-18.5 44.5z" />
<glyph unicode="&#x2022;" horiz-adv-x="524" d="M61 578q0 83 59 142.5t142 59.5q84 0 143.5 -59t59.5 -143q0 -85 -59 -144t-144 -59q-83 0 -142 59t-59 144zM178 578q0 -35 25 -59.5t59 -24.5q35 0 60.5 24.5t25.5 59.5t-25.5 59.5t-60.5 24.5q-34 0 -59 -24.5t-25 -59.5z" />
<glyph unicode="&#x2026;" horiz-adv-x="1179" d="M94 78q0 35 25.5 60.5t60.5 25.5q36 0 61 -25t25 -61t-25 -61t-61 -25q-35 0 -60.5 25.5t-25.5 60.5zM504 78q0 35 25.5 60.5t60.5 25.5q36 0 61 -25t25 -61t-25 -61t-61 -25q-35 0 -60.5 25.5t-25.5 60.5zM913 78q0 35 25.5 60.5t60.5 25.5q36 0 61 -25t25 -61t-25 -61 t-61 -25q-35 0 -60.5 25.5t-25.5 60.5z" />
<glyph unicode="&#x202f;" horiz-adv-x="357" />
<glyph unicode="&#x2039;" horiz-adv-x="489" d="M106 565q-16 32 0 64l132 237q14 25 39.5 32.5t50.5 -5.5q32 -19 32 -57q0 -20 -8 -31q-85 -160 -112 -207l120 -223q9 -15 9 -31q0 -37 -33 -57q-25 -14 -51 -6.5t-39 32.5z" />
<glyph unicode="&#x203a;" horiz-adv-x="489" d="M121 344q0 11 8 31q96 174 123 223l-115 207q-8 16 -8 31q0 39 35 57q23 14 49.5 6t38.5 -33l131 -237q19 -32 0 -64l-139 -252q-12 -25 -38.5 -32.5t-49.5 6.5q-35 18 -35 57z" />
<glyph unicode="&#x205f;" horiz-adv-x="447" />
<glyph unicode="&#x20ac;" d="M37 487q0 28 18.5 47t46.5 19h99v197h-99q-28 0 -46.5 18.5t-18.5 46.5t18.5 47t46.5 19h99v118q0 106 64 189.5t165 111.5q102 28 199.5 -13t150.5 -132l21 -35q13 -25 6.5 -50.5t-29.5 -39.5q-25 -14 -51 -7t-39 32l-20 35q-31 52 -87.5 75.5t-115.5 8.5t-96 -64 t-37 -111v-118h262q26 0 45.5 -19.5t19.5 -46.5t-19 -46t-46 -19h-262v-197h180q27 0 46.5 -19.5t19.5 -46.5t-19.5 -46t-46.5 -19h-180v-119q0 -62 36.5 -110.5t96.5 -63.5q59 -15 115.5 8.5t87.5 75.5l20 35q13 24 39 31t51 -7q23 -14 29.5 -39.5t-6.5 -50.5l-21 -35 q-52 -92 -149.5 -132.5t-200.5 -12.5q-101 28 -165 111.5t-64 189.5v119h-99q-28 0 -46.5 18.5t-18.5 46.5z" />
<glyph unicode="&#x2122;" horiz-adv-x="1372" d="M55 1237q0 26 18 43.5t44 17.5h409q27 0 45.5 -17.5t18.5 -43.5t-19 -44.5t-45 -18.5h-141v-543q0 -26 -18.5 -45t-44.5 -19t-44 19t-18 45v543h-143q-26 0 -44 18.5t-18 44.5zM711 631v614q0 21 11.5 37.5t31.5 22.5q41 12 69 -23q97 -135 154 -217l153 217q12 15 32 22 t40 1q19 -6 31 -23t12 -37v-614q0 -26 -18.5 -45t-44.5 -19t-44 19t-18 45v420l-92 -129q-20 -27 -51 -27t-51 27q-45 66 -90 129v-420q0 -26 -19 -45t-45 -19t-43.5 18.5t-17.5 45.5z" />
<glyph unicode="&#x25fc;" horiz-adv-x="942" d="M0 0v942h942v-942h-942z" />
</font>
</defs>
</svg>
